solid ArduinoOnPicaTinny v5.005
facet normal 0.000000 -1.000000 0.000000
outer loop
vertex 412.000000 -201.085724 131.000000
vertex 412.000000 -201.085724 121.000000
vertex 414.000000 -201.085724 131.000000
endloop
endfacet
facet normal 0.000000 -1.000000 0.000000
outer loop
vertex 414.000000 -201.085724 131.000000
vertex 412.000000 -201.085724 121.000000
vertex 414.000000 -201.085724 121.000000
endloop
endfacet
facet normal 0.000000 -1.000000 0.000000
outer loop
vertex 371.000000 -201.085724 131.000000
vertex 371.000000 -201.085724 121.000000
vertex 373.000000 -201.085724 131.000000
endloop
endfacet
facet normal 0.000000 -1.000000 0.000000
outer loop
vertex 373.000000 -201.085724 131.000000
vertex 371.000000 -201.085724 121.000000
vertex 373.000000 -201.085724 121.000000
endloop
endfacet
facet normal 0.000000 0.000000 -1.000000
outer loop
vertex 412.000000 -201.085724 121.000000
vertex 412.000000 -186.012817 121.000000
vertex 414.000000 -201.085724 121.000000
endloop
endfacet
facet normal 0.000000 0.000000 -1.000000
outer loop
vertex 414.000000 -201.085724 121.000000
vertex 412.000000 -186.012817 121.000000
vertex 414.000000 -186.012817 121.000000
endloop
endfacet
facet normal -1.000000 0.000000 0.000000
outer loop
vertex 412.000000 -201.085724 131.000000
vertex 412.000000 -198.553375 123.500000
vertex 412.000000 -201.085724 121.000000
endloop
endfacet
facet normal -1.000000 0.000000 0.000000
outer loop
vertex 412.000000 -201.085724 121.000000
vertex 412.000000 -198.553375 123.500000
vertex 412.000000 -198.519287 123.241180
endloop
endfacet
facet normal -1.000000 0.000000 0.000000
outer loop
vertex 412.000000 -201.085724 121.000000
vertex 412.000000 -198.519287 123.241180
vertex 412.000000 -198.419388 123.000000
endloop
endfacet
facet normal -1.000000 0.000000 0.000000
outer loop
vertex 412.000000 -201.085724 131.000000
vertex 412.000000 -198.553375 131.000000
vertex 412.000000 -198.553375 123.500000
endloop
endfacet
facet normal -1.000000 0.000000 0.000000
outer loop
vertex 412.000000 -198.419388 123.000000
vertex 412.000000 -198.260468 122.792892
vertex 412.000000 -201.085724 121.000000
endloop
endfacet
facet normal -1.000000 0.000074 0.000000
outer loop
vertex 412.000000 -201.085724 121.000000
vertex 412.000000 -198.260468 122.792892
vertex 412.000000 -198.053375 122.633980
endloop
endfacet
facet normal -1.000000 -0.000088 0.000000
outer loop
vertex 412.000000 -201.085724 121.000000
vertex 412.000000 -198.053375 122.633980
vertex 412.000000 -197.812195 122.534073
endloop
endfacet
facet normal -1.000000 0.000000 0.000000
outer loop
vertex 412.000000 -197.812195 122.534073
vertex 412.000000 -197.553375 122.500000
vertex 412.000000 -201.085724 121.000000
endloop
endfacet
facet normal -1.000000 0.000000 0.000000
outer loop
vertex 412.000000 -201.085724 121.000000
vertex 412.000000 -197.553375 122.500000
vertex 412.000000 -186.012817 121.000000
endloop
endfacet
facet normal -1.000000 0.000000 0.000000
outer loop
vertex 412.000000 -186.012817 121.000000
vertex 412.000000 -197.553375 122.500000
vertex 412.000000 -188.612808 122.500000
endloop
endfacet
facet normal -1.000000 0.000000 0.000000
outer loop
vertex 412.000000 -186.012817 121.000000
vertex 412.000000 -188.612808 122.500000
vertex 412.000000 -188.353989 122.534073
endloop
endfacet
facet normal -1.000000 0.000000 0.000000
outer loop
vertex 412.000000 -188.353989 122.534073
vertex 412.000000 -188.112808 122.633980
vertex 412.000000 -186.012817 121.000000
endloop
endfacet
facet normal -1.000000 -0.000091 0.000000
outer loop
vertex 412.000000 -186.012817 121.000000
vertex 412.000000 -188.112808 122.633980
vertex 412.000000 -187.905701 122.792892
endloop
endfacet
facet normal -1.000000 0.000000 0.000000
outer loop
vertex 412.000000 -186.012817 121.000000
vertex 412.000000 -187.905701 122.792892
vertex 412.000000 -186.012817 123.500000
endloop
endfacet
facet normal -1.000000 0.000000 0.000000
outer loop
vertex 412.000000 -186.012817 123.500000
vertex 412.000000 -187.905701 122.792892
vertex 412.000000 -187.746780 123.000000
endloop
endfacet
facet normal -1.000000 0.000000 0.000000
outer loop
vertex 412.000000 -186.012817 123.500000
vertex 412.000000 -187.746780 123.000000
vertex 412.000000 -187.646881 123.241180
endloop
endfacet
facet normal -1.000000 0.000000 0.000000
outer loop
vertex 412.000000 -187.646881 123.241180
vertex 412.000000 -187.612808 123.500000
vertex 412.000000 -186.012817 123.500000
endloop
endfacet
facet normal 1.000000 0.000000 0.000000
outer loop
vertex 373.000000 -198.553375 131.000000
vertex 373.000000 -201.085724 131.000000
vertex 373.000000 -198.553375 123.500000
endloop
endfacet
facet normal 1.000000 0.000000 0.000000
outer loop
vertex 373.000000 -198.553375 123.500000
vertex 373.000000 -201.085724 131.000000
vertex 373.000000 -201.085724 121.000000
endloop
endfacet
facet normal 1.000000 0.000000 0.000000
outer loop
vertex 373.000000 -198.553375 123.500000
vertex 373.000000 -201.085724 121.000000
vertex 373.000000 -198.519287 123.241180
endloop
endfacet
facet normal 1.000000 0.000000 0.000000
outer loop
vertex 373.000000 -198.519287 123.241180
vertex 373.000000 -201.085724 121.000000
vertex 373.000000 -198.419388 123.000000
endloop
endfacet
facet normal 1.000000 0.000000 0.000000
outer loop
vertex 373.000000 -198.419388 123.000000
vertex 373.000000 -201.085724 121.000000
vertex 373.000000 -198.260468 122.792892
endloop
endfacet
facet normal 1.000000 0.000000 0.000000
outer loop
vertex 373.000000 -198.260468 122.792892
vertex 373.000000 -201.085724 121.000000
vertex 373.000000 -198.053375 122.633980
endloop
endfacet
facet normal 1.000000 0.000175 0.000000
outer loop
vertex 373.000000 -198.053375 122.633980
vertex 373.000000 -201.085724 121.000000
vertex 373.000000 -197.812195 122.534073
endloop
endfacet
facet normal 1.000000 0.000000 0.000000
outer loop
vertex 373.000000 -197.812195 122.534073
vertex 373.000000 -201.085724 121.000000
vertex 373.000000 -197.553375 122.500000
endloop
endfacet
facet normal 1.000000 0.000000 0.000000
outer loop
vertex 373.000000 -197.553375 122.500000
vertex 373.000000 -201.085724 121.000000
vertex 373.000000 -186.012817 121.000000
endloop
endfacet
facet normal 1.000000 0.000000 0.000000
outer loop
vertex 373.000000 -197.553375 122.500000
vertex 373.000000 -186.012817 121.000000
vertex 373.000000 -188.612808 122.500000
endloop
endfacet
facet normal 1.000000 0.000000 0.000000
outer loop
vertex 373.000000 -188.612808 122.500000
vertex 373.000000 -186.012817 121.000000
vertex 373.000000 -188.353989 122.534073
endloop
endfacet
facet normal 1.000000 -0.000202 0.000000
outer loop
vertex 373.000000 -188.353989 122.534073
vertex 373.000000 -186.012817 121.000000
vertex 373.000000 -188.112808 122.633980
endloop
endfacet
facet normal 1.000000 0.000000 0.000000
outer loop
vertex 373.000000 -188.112808 122.633980
vertex 373.000000 -186.012817 121.000000
vertex 373.000000 -187.905701 122.792892
endloop
endfacet
facet normal 1.000000 0.000000 0.000000
outer loop
vertex 373.000000 -187.905701 122.792892
vertex 373.000000 -186.012817 121.000000
vertex 373.000000 -186.012817 123.500000
endloop
endfacet
facet normal 1.000000 0.000109 0.000000
outer loop
vertex 373.000000 -187.905701 122.792892
vertex 373.000000 -186.012817 123.500000
vertex 373.000000 -187.746780 123.000000
endloop
endfacet
facet normal 1.000000 0.000000 0.000000
outer loop
vertex 373.000000 -187.746780 123.000000
vertex 373.000000 -186.012817 123.500000
vertex 373.000000 -187.646881 123.241180
endloop
endfacet
facet normal 1.000000 0.000000 0.000000
outer loop
vertex 373.000000 -187.646881 123.241180
vertex 373.000000 -186.012817 123.500000
vertex 373.000000 -187.612808 123.500000
endloop
endfacet
facet normal -1.000000 0.000000 0.000000
outer loop
vertex 371.000000 -201.085724 121.000000
vertex 371.000000 -201.085724 131.000000
vertex 371.000000 -186.012817 121.000000
endloop
endfacet
facet normal -1.000000 0.000000 0.000000
outer loop
vertex 371.000000 -186.012817 121.000000
vertex 371.000000 -201.085724 131.000000
vertex 371.000000 -186.012817 131.000000
endloop
endfacet
facet normal 0.000000 1.000000 0.000000
outer loop
vertex 371.000000 -186.012817 121.000000
vertex 371.000000 -186.012817 131.000000
vertex 373.000000 -186.012817 123.500000
endloop
endfacet
facet normal 0.000000 1.000000 0.000000
outer loop
vertex 373.000000 -186.012817 123.500000
vertex 371.000000 -186.012817 131.000000
vertex 375.000000 -186.012817 131.000000
endloop
endfacet
facet normal 0.000000 1.000000 0.000000
outer loop
vertex 373.000000 -186.012817 123.500000
vertex 375.000000 -186.012817 131.000000
vertex 375.000000 -186.012817 123.500000
endloop
endfacet
facet normal 0.000000 1.000000 0.000000
outer loop
vertex 373.000000 -186.012817 123.500000
vertex 373.000000 -186.012817 121.000000
vertex 371.000000 -186.012817 121.000000
endloop
endfacet
facet normal 0.000000 0.000000 -1.000000
outer loop
vertex 375.000000 -187.612808 123.500000
vertex 373.000000 -187.612808 123.500000
vertex 375.000000 -186.012817 123.500000
endloop
endfacet
facet normal 0.000000 0.000000 -1.000000
outer loop
vertex 375.000000 -186.012817 123.500000
vertex 373.000000 -187.612808 123.500000
vertex 373.000000 -186.012817 123.500000
endloop
endfacet
facet normal -1.000000 0.000000 0.000000
outer loop
vertex 375.000000 -187.612808 123.500000
vertex 375.000000 -186.012817 123.500000
vertex 375.000000 -187.646881 123.241180
endloop
endfacet
facet normal -1.000000 0.000000 0.000000
outer loop
vertex 375.000000 -187.646881 123.241180
vertex 375.000000 -186.012817 123.500000
vertex 375.000000 -187.746780 123.000000
endloop
endfacet
facet normal -1.000000 0.000000 0.000000
outer loop
vertex 375.000000 -187.746780 123.000000
vertex 375.000000 -186.012817 123.500000
vertex 375.000000 -187.905701 122.792892
endloop
endfacet
facet normal -1.000000 -0.000395 0.000000
outer loop
vertex 375.000000 -187.905701 122.792892
vertex 375.000000 -186.012817 123.500000
vertex 375.000000 -188.112808 122.633980
endloop
endfacet
facet normal -1.000000 0.000000 0.000000
outer loop
vertex 375.000000 -188.112808 122.633980
vertex 375.000000 -186.012817 123.500000
vertex 375.000000 -186.000000 119.000000
endloop
endfacet
facet normal -1.000000 0.000000 0.000000
outer loop
vertex 375.000000 -188.112808 122.633980
vertex 375.000000 -186.000000 119.000000
vertex 375.000000 -188.353989 122.534073
endloop
endfacet
facet normal -1.000000 0.000000 0.000000
outer loop
vertex 375.000000 -188.353989 122.534073
vertex 375.000000 -186.000000 119.000000
vertex 375.000000 -188.612808 122.500000
endloop
endfacet
facet normal -1.000000 0.000000 0.000000
outer loop
vertex 375.000000 -188.612808 122.500000
vertex 375.000000 -186.000000 119.000000
vertex 375.000000 -197.553375 122.500000
endloop
endfacet
facet normal -1.000000 0.000000 0.000000
outer loop
vertex 375.000000 -197.553375 122.500000
vertex 375.000000 -186.000000 119.000000
vertex 375.000000 -202.000000 122.438667
endloop
endfacet
facet normal -1.000000 0.000000 0.000000
outer loop
vertex 375.000000 -197.553375 122.500000
vertex 375.000000 -202.000000 122.438667
vertex 375.000000 -197.812195 122.534073
endloop
endfacet
facet normal -1.000000 0.000000 0.000000
outer loop
vertex 375.000000 -197.812195 122.534073
vertex 375.000000 -202.000000 122.438667
vertex 375.000000 -198.053375 122.633980
endloop
endfacet
facet normal -1.000000 0.000000 0.000000
outer loop
vertex 375.000000 -198.053375 122.633980
vertex 375.000000 -202.000000 122.438667
vertex 375.000000 -198.260468 122.792892
endloop
endfacet
facet normal -1.000000 0.000037 0.000000
outer loop
vertex 375.000000 -198.260468 122.792892
vertex 375.000000 -202.000000 122.438667
vertex 375.000000 -198.419388 123.000000
endloop
endfacet
facet normal -1.000000 0.000000 0.000000
outer loop
vertex 375.000000 -198.419388 123.000000
vertex 375.000000 -202.000000 122.438667
vertex 375.000000 -198.519287 123.241180
endloop
endfacet
facet normal -1.000000 0.000000 0.000000
outer loop
vertex 375.000000 -198.519287 123.241180
vertex 375.000000 -202.000000 122.438667
vertex 375.000000 -198.553375 123.500000
endloop
endfacet
facet normal -1.000000 0.000000 0.000000
outer loop
vertex 375.000000 -198.553375 123.500000
vertex 375.000000 -202.000000 122.438667
vertex 375.000000 -202.000000 131.000000
endloop
endfacet
facet normal -1.000000 0.000000 0.000000
outer loop
vertex 375.000000 -198.553375 123.500000
vertex 375.000000 -202.000000 131.000000
vertex 375.000000 -198.553375 131.000000
endloop
endfacet
facet normal -1.000000 0.000000 0.000000
outer loop
vertex 375.000000 -186.012817 131.000000
vertex 375.000000 -186.000000 131.000000
vertex 375.000000 -186.012817 123.500000
endloop
endfacet
facet normal -1.000000 0.000000 0.000000
outer loop
vertex 375.000000 -186.012817 123.500000
vertex 375.000000 -186.000000 131.000000
vertex 375.000000 -186.000000 119.000000
endloop
endfacet
facet normal -1.000000 0.000000 0.000000
outer loop
vertex 375.000000 -186.000000 119.000000
vertex 375.000000 -216.000000 119.000000
vertex 375.000000 -202.000000 122.438667
endloop
endfacet
facet normal -1.000000 0.000000 0.000000
outer loop
vertex 375.000000 -202.000000 122.438667
vertex 375.000000 -216.000000 119.000000
vertex 375.000000 -204.065567 122.438667
endloop
endfacet
facet normal -1.000000 0.000000 0.000000
outer loop
vertex 375.000000 -204.065567 122.438667
vertex 375.000000 -216.000000 119.000000
vertex 375.000000 -204.937958 122.623131
endloop
endfacet
facet normal -1.000000 0.000000 0.000000
outer loop
vertex 375.000000 -204.065567 122.438667
vertex 375.000000 -204.937958 122.623131
vertex 375.000000 -204.065567 122.457451
endloop
endfacet
facet normal -1.000000 0.000000 0.000000
outer loop
vertex 375.000000 -216.000000 131.000000
vertex 375.000000 -212.741516 128.037766
vertex 375.000000 -216.000000 119.000000
endloop
endfacet
facet normal -1.000000 -0.000019 0.000000
outer loop
vertex 375.000000 -216.000000 119.000000
vertex 375.000000 -212.741516 128.037766
vertex 375.000000 -212.270737 127.339516
endloop
endfacet
facet normal -1.000000 0.000026 0.000000
outer loop
vertex 375.000000 -216.000000 119.000000
vertex 375.000000 -212.270737 127.339516
vertex 375.000000 -211.737778 126.669006
endloop
endfacet
facet normal -1.000000 0.000000 0.000000
outer loop
vertex 375.000000 -213.939117 131.000000
vertex 375.000000 -213.747635 130.245209
vertex 375.000000 -216.000000 131.000000
endloop
endfacet
facet normal -1.000000 -0.000041 0.000000
outer loop
vertex 375.000000 -216.000000 131.000000
vertex 375.000000 -213.747635 130.245209
vertex 375.000000 -213.482773 129.496140
endloop
endfacet
facet normal -1.000000 0.000090 0.000000
outer loop
vertex 375.000000 -216.000000 131.000000
vertex 375.000000 -213.482773 129.496140
vertex 375.000000 -213.146545 128.758453
endloop
endfacet
facet normal -1.000000 0.000000 0.000000
outer loop
vertex 375.000000 -213.146545 128.758453
vertex 375.000000 -212.741516 128.037766
vertex 375.000000 -216.000000 131.000000
endloop
endfacet
facet normal -1.000000 -0.000067 0.000000
outer loop
vertex 375.000000 -211.737778 126.669006
vertex 375.000000 -211.146683 126.031319
vertex 375.000000 -216.000000 119.000000
endloop
endfacet
facet normal -1.000000 0.000033 0.000000
outer loop
vertex 375.000000 -216.000000 119.000000
vertex 375.000000 -211.146683 126.031319
vertex 375.000000 -210.501938 125.431290
endloop
endfacet
facet normal -1.000000 -0.000008 0.000000
outer loop
vertex 375.000000 -216.000000 119.000000
vertex 375.000000 -210.501938 125.431290
vertex 375.000000 -209.808411 124.873451
endloop
endfacet
facet normal -1.000000 0.000000 0.000000
outer loop
vertex 375.000000 -209.808411 124.873451
vertex 375.000000 -209.071365 124.362038
vertex 375.000000 -216.000000 119.000000
endloop
endfacet
facet normal -1.000000 0.000000 0.000000
outer loop
vertex 375.000000 -216.000000 119.000000
vertex 375.000000 -209.071365 124.362038
vertex 375.000000 -208.296387 123.900925
endloop
endfacet
facet normal -1.000000 -0.000009 0.000000
outer loop
vertex 375.000000 -216.000000 119.000000
vertex 375.000000 -208.296387 123.900925
vertex 375.000000 -207.489349 123.493614
endloop
endfacet
facet normal -1.000000 0.000000 0.000000
outer loop
vertex 375.000000 -207.489349 123.493614
vertex 375.000000 -206.656357 123.143181
vertex 375.000000 -216.000000 119.000000
endloop
endfacet
facet normal -1.000000 -0.000022 0.000000
outer loop
vertex 375.000000 -216.000000 119.000000
vertex 375.000000 -206.656357 123.143181
vertex 375.000000 -205.803741 122.852280
endloop
endfacet
facet normal -1.000000 0.000013 0.000000
outer loop
vertex 375.000000 -216.000000 119.000000
vertex 375.000000 -205.803741 122.852280
vertex 375.000000 -204.937958 122.623131
endloop
endfacet
facet normal 0.000000 0.000000 -1.000000
outer loop
vertex 412.000000 -187.612808 123.500000
vertex 410.000000 -187.612808 123.500000
vertex 412.000000 -186.012817 123.500000
endloop
endfacet
facet normal 0.000000 0.000000 -1.000000
outer loop
vertex 412.000000 -186.012817 123.500000
vertex 410.000000 -187.612808 123.500000
vertex 410.000000 -186.012817 123.500000
endloop
endfacet
facet normal 0.000000 1.000000 0.000000
outer loop
vertex 410.000000 -186.012817 123.500000
vertex 410.000000 -186.012817 131.000000
vertex 412.000000 -186.012817 123.500000
endloop
endfacet
facet normal 0.000000 1.000000 0.000000
outer loop
vertex 412.000000 -186.012817 123.500000
vertex 410.000000 -186.012817 131.000000
vertex 414.000000 -186.012817 131.000000
endloop
endfacet
facet normal 0.000000 1.000000 0.000000
outer loop
vertex 412.000000 -186.012817 123.500000
vertex 414.000000 -186.012817 131.000000
vertex 414.000000 -186.012817 121.000000
endloop
endfacet
facet normal 0.000000 1.000000 0.000000
outer loop
vertex 414.000000 -186.012817 121.000000
vertex 412.000000 -186.012817 121.000000
vertex 412.000000 -186.012817 123.500000
endloop
endfacet
facet normal 0.000000 1.000000 0.000000
outer loop
vertex 410.000000 -186.000000 131.000000
vertex 410.000000 -186.000000 119.000000
vertex 375.000000 -186.000000 131.000000
endloop
endfacet
facet normal 0.000000 1.000000 0.000000
outer loop
vertex 375.000000 -186.000000 131.000000
vertex 410.000000 -186.000000 119.000000
vertex 375.000000 -186.000000 119.000000
endloop
endfacet
facet normal 0.000338 0.969293 0.245909
outer loop
vertex 410.000000 -213.747635 130.245209
vertex 392.500000 -213.714249 130.137711
vertex 410.000000 -213.939117 131.000000
endloop
endfacet
facet normal -0.000263 0.966315 0.257362
outer loop
vertex 410.000000 -213.939117 131.000000
vertex 392.500000 -213.714249 130.137711
vertex 375.000000 -213.747635 130.245209
endloop
endfacet
facet normal 0.000000 0.969301 0.245875
outer loop
vertex 410.000000 -213.939117 131.000000
vertex 375.000000 -213.747635 130.245209
vertex 375.000000 -213.939117 131.000000
endloop
endfacet
facet normal -0.000249 0.942795 0.333373
outer loop
vertex 410.000000 -213.747635 130.245209
vertex 410.000000 -213.482773 129.496140
vertex 392.500000 -213.714249 130.137711
endloop
endfacet
facet normal 0.000496 0.936252 0.351329
outer loop
vertex 392.500000 -213.714249 130.137711
vertex 410.000000 -213.482773 129.496140
vertex 392.500000 -213.393890 129.283966
endloop
endfacet
facet normal -0.000496 0.936252 0.351329
outer loop
vertex 392.500000 -213.714249 130.137711
vertex 392.500000 -213.393890 129.283966
vertex 375.000000 -213.482773 129.496140
endloop
endfacet
facet normal 0.000407 0.909945 0.414728
outer loop
vertex 375.000000 -213.482773 129.496140
vertex 392.500000 -213.393890 129.283966
vertex 375.000000 -213.146545 128.758453
endloop
endfacet
facet normal -0.000606 0.896855 0.442325
outer loop
vertex 375.000000 -213.146545 128.758453
vertex 392.500000 -213.393890 129.283966
vertex 392.500000 -212.981216 128.447189
endloop
endfacet
facet normal 0.000478 0.871764 0.489925
outer loop
vertex 375.000000 -213.146545 128.758453
vertex 392.500000 -212.981216 128.447189
vertex 375.000000 -212.741516 128.037766
endloop
endfacet
facet normal -0.000633 0.850982 0.525194
outer loop
vertex 375.000000 -212.741516 128.037766
vertex 392.500000 -212.981216 128.447189
vertex 392.500000 -212.480331 127.635674
endloop
endfacet
facet normal 0.000470 0.829126 0.559062
outer loop
vertex 375.000000 -212.741516 128.037766
vertex 392.500000 -212.480331 127.635674
vertex 375.000000 -212.270737 127.339516
endloop
endfacet
facet normal -0.000582 0.799759 0.600320
outer loop
vertex 375.000000 -212.270737 127.339516
vertex 392.500000 -212.480331 127.635674
vertex 392.500000 -211.896164 126.857452
endloop
endfacet
facet normal 0.000384 0.782817 0.622252
outer loop
vertex 375.000000 -212.270737 127.339516
vertex 392.500000 -211.896164 126.857452
vertex 375.000000 -211.737778 126.669006
endloop
endfacet
facet normal -0.000457 0.744232 0.667921
outer loop
vertex 375.000000 -211.737778 126.669006
vertex 392.500000 -211.896164 126.857452
vertex 392.500000 -211.234528 126.120224
endloop
endfacet
facet normal 0.000228 0.733406 0.679791
outer loop
vertex 375.000000 -211.737778 126.669006
vertex 392.500000 -211.234528 126.120224
vertex 375.000000 -211.146683 126.031319
endloop
endfacet
facet normal -0.000262 0.685070 0.728477
outer loop
vertex 375.000000 -211.146683 126.031319
vertex 392.500000 -211.234528 126.120224
vertex 392.500000 -210.501938 125.431290
endloop
endfacet
facet normal 0.000000 0.681261 0.732041
outer loop
vertex 375.000000 -211.146683 126.031319
vertex 392.500000 -210.501938 125.431290
vertex 375.000000 -210.501938 125.431290
endloop
endfacet
facet normal 0.000000 0.626759 0.779213
outer loop
vertex 375.000000 -210.501938 125.431290
vertex 392.500000 -210.501938 125.431290
vertex 375.000000 -209.808411 124.873451
endloop
endfacet
facet normal -0.000260 0.622766 0.782408
outer loop
vertex 375.000000 -209.808411 124.873451
vertex 392.500000 -210.501938 125.431290
vertex 392.500000 -209.705643 124.797455
endloop
endfacet
facet normal 0.000221 0.570088 0.821584
outer loop
vertex 375.000000 -209.808411 124.873451
vertex 392.500000 -209.705643 124.797455
vertex 375.000000 -209.071365 124.362038
endloop
endfacet
facet normal -0.000442 0.557660 0.830069
outer loop
vertex 375.000000 -209.071365 124.362038
vertex 392.500000 -209.705643 124.797455
vertex 392.500000 -208.853561 124.224998
endloop
endfacet
facet normal 0.000366 0.511351 0.859372
outer loop
vertex 375.000000 -209.071365 124.362038
vertex 392.500000 -208.853561 124.224998
vertex 375.000000 -208.296387 123.900925
endloop
endfacet
facet normal -0.000548 0.489861 0.871801
outer loop
vertex 375.000000 -208.296387 123.900925
vertex 392.500000 -208.853561 124.224998
vertex 392.500000 -207.954086 123.719589
endloop
endfacet
facet normal 0.000437 0.450544 0.892754
outer loop
vertex 375.000000 -208.296387 123.900925
vertex 392.500000 -207.954086 123.719589
vertex 375.000000 -207.489349 123.493614
endloop
endfacet
facet normal -0.000582 0.419446 0.907780
outer loop
vertex 375.000000 -207.489349 123.493614
vertex 392.500000 -207.954086 123.719589
vertex 392.500000 -207.016129 123.286217
endloop
endfacet
facet normal 0.000438 0.387769 0.921757
outer loop
vertex 375.000000 -207.489349 123.493614
vertex 392.500000 -207.016129 123.286217
vertex 375.000000 -206.656357 123.143181
endloop
endfacet
facet normal -0.000548 0.346312 0.938119
outer loop
vertex 375.000000 -206.656357 123.143181
vertex 392.500000 -207.016129 123.286217
vertex 392.500000 -206.048981 122.929184
endloop
endfacet
facet normal 0.000366 0.322917 0.946427
outer loop
vertex 375.000000 -206.656357 123.143181
vertex 392.500000 -206.048981 122.929184
vertex 375.000000 -205.803741 122.852280
endloop
endfacet
facet normal -0.000441 0.270411 0.962745
outer loop
vertex 375.000000 -205.803741 122.852280
vertex 392.500000 -206.048981 122.929184
vertex 392.500000 -205.062195 122.652016
endloop
endfacet
facet normal 0.000220 0.255860 0.966714
outer loop
vertex 375.000000 -205.803741 122.852280
vertex 392.500000 -205.062195 122.652016
vertex 375.000000 -204.937958 122.623131
endloop
endfacet
facet normal -0.000298 0.186576 0.982441
outer loop
vertex 375.000000 -204.937958 122.623131
vertex 392.500000 -205.062195 122.652016
vertex 375.000000 -204.065567 122.457451
endloop
endfacet
facet normal 0.000231 0.195521 0.980700
outer loop
vertex 375.000000 -204.065567 122.457451
vertex 392.500000 -205.062195 122.652016
vertex 410.000000 -204.937958 122.623131
endloop
endfacet
facet normal 0.000000 0.186577 0.982440
outer loop
vertex 375.000000 -204.065567 122.457451
vertex 410.000000 -204.937958 122.623131
vertex 410.000000 -204.065567 122.457451
endloop
endfacet
facet normal -0.000407 0.909946 0.414727
outer loop
vertex 410.000000 -213.482773 129.496140
vertex 410.000000 -213.146545 128.758453
vertex 392.500000 -213.393890 129.283966
endloop
endfacet
facet normal 0.000606 0.896854 0.442326
outer loop
vertex 392.500000 -213.393890 129.283966
vertex 410.000000 -213.146545 128.758453
vertex 392.500000 -212.981216 128.447189
endloop
endfacet
facet normal -0.000478 0.871764 0.489926
outer loop
vertex 410.000000 -213.146545 128.758453
vertex 410.000000 -212.741516 128.037766
vertex 392.500000 -212.981216 128.447189
endloop
endfacet
facet normal 0.000633 0.850982 0.525195
outer loop
vertex 392.500000 -212.981216 128.447189
vertex 410.000000 -212.741516 128.037766
vertex 392.500000 -212.480331 127.635674
endloop
endfacet
facet normal -0.000470 0.829126 0.559062
outer loop
vertex 410.000000 -212.741516 128.037766
vertex 410.000000 -212.270737 127.339516
vertex 392.500000 -212.480331 127.635674
endloop
endfacet
facet normal 0.000582 0.799761 0.600319
outer loop
vertex 392.500000 -212.480331 127.635674
vertex 410.000000 -212.270737 127.339516
vertex 392.500000 -211.896164 126.857452
endloop
endfacet
facet normal -0.000384 0.782816 0.622253
outer loop
vertex 410.000000 -212.270737 127.339516
vertex 410.000000 -211.737778 126.669006
vertex 392.500000 -211.896164 126.857452
endloop
endfacet
facet normal 0.000456 0.744232 0.667921
outer loop
vertex 392.500000 -211.896164 126.857452
vertex 410.000000 -211.737778 126.669006
vertex 392.500000 -211.234528 126.120224
endloop
endfacet
facet normal -0.000228 0.733406 0.679790
outer loop
vertex 410.000000 -211.737778 126.669006
vertex 410.000000 -211.146683 126.031319
vertex 392.500000 -211.234528 126.120224
endloop
endfacet
facet normal 0.000263 0.685067 0.728480
outer loop
vertex 392.500000 -211.234528 126.120224
vertex 410.000000 -211.146683 126.031319
vertex 392.500000 -210.501938 125.431290
endloop
endfacet
facet normal 0.000000 0.681261 0.732041
outer loop
vertex 410.000000 -211.146683 126.031319
vertex 410.000000 -210.501938 125.431290
vertex 392.500000 -210.501938 125.431290
endloop
endfacet
facet normal 0.000000 0.626760 0.779212
outer loop
vertex 392.500000 -210.501938 125.431290
vertex 410.000000 -210.501938 125.431290
vertex 410.000000 -209.808411 124.873451
endloop
endfacet
facet normal 0.000259 0.622764 0.782410
outer loop
vertex 392.500000 -210.501938 125.431290
vertex 410.000000 -209.808411 124.873451
vertex 392.500000 -209.705643 124.797455
endloop
endfacet
facet normal -0.000222 0.570088 0.821584
outer loop
vertex 392.500000 -209.705643 124.797455
vertex 410.000000 -209.808411 124.873451
vertex 410.000000 -209.071365 124.362038
endloop
endfacet
facet normal 0.000441 0.557660 0.830069
outer loop
vertex 392.500000 -209.705643 124.797455
vertex 410.000000 -209.071365 124.362038
vertex 392.500000 -208.853561 124.224998
endloop
endfacet
facet normal -0.000366 0.511351 0.859372
outer loop
vertex 392.500000 -208.853561 124.224998
vertex 410.000000 -209.071365 124.362038
vertex 410.000000 -208.296387 123.900925
endloop
endfacet
facet normal 0.000548 0.489862 0.871800
outer loop
vertex 392.500000 -208.853561 124.224998
vertex 410.000000 -208.296387 123.900925
vertex 392.500000 -207.954086 123.719589
endloop
endfacet
facet normal -0.000437 0.450544 0.892754
outer loop
vertex 392.500000 -207.954086 123.719589
vertex 410.000000 -208.296387 123.900925
vertex 410.000000 -207.489349 123.493614
endloop
endfacet
facet normal 0.000583 0.419446 0.907780
outer loop
vertex 392.500000 -207.954086 123.719589
vertex 410.000000 -207.489349 123.493614
vertex 392.500000 -207.016129 123.286217
endloop
endfacet
facet normal -0.000437 0.387768 0.921757
outer loop
vertex 392.500000 -207.016129 123.286217
vertex 410.000000 -207.489349 123.493614
vertex 410.000000 -206.656357 123.143181
endloop
endfacet
facet normal 0.000548 0.346312 0.938119
outer loop
vertex 392.500000 -207.016129 123.286217
vertex 410.000000 -206.656357 123.143181
vertex 392.500000 -206.048981 122.929184
endloop
endfacet
facet normal -0.000366 0.322917 0.946427
outer loop
vertex 392.500000 -206.048981 122.929184
vertex 410.000000 -206.656357 123.143181
vertex 410.000000 -205.803741 122.852280
endloop
endfacet
facet normal 0.000441 0.270411 0.962745
outer loop
vertex 392.500000 -206.048981 122.929184
vertex 410.000000 -205.803741 122.852280
vertex 392.500000 -205.062195 122.652016
endloop
endfacet
facet normal -0.000220 0.255859 0.966714
outer loop
vertex 392.500000 -205.062195 122.652016
vertex 410.000000 -205.803741 122.852280
vertex 410.000000 -204.937958 122.623131
endloop
endfacet
facet normal 0.000249 0.942795 0.333373
outer loop
vertex 375.000000 -213.482773 129.496140
vertex 375.000000 -213.747635 130.245209
vertex 392.500000 -213.714249 130.137711
endloop
endfacet
facet normal 0.000000 1.000000 0.000000
outer loop
vertex 375.000000 -204.065567 122.438667
vertex 375.000000 -204.065567 122.457451
vertex 410.000000 -204.065567 122.438667
endloop
endfacet
facet normal 0.000000 1.000000 0.000000
outer loop
vertex 410.000000 -204.065567 122.438667
vertex 375.000000 -204.065567 122.457451
vertex 410.000000 -204.065567 122.457451
endloop
endfacet
facet normal 0.000000 0.000000 1.000000
outer loop
vertex 410.000000 -204.065567 122.438667
vertex 410.000000 -202.000000 122.438667
vertex 375.000000 -204.065567 122.438667
endloop
endfacet
facet normal 0.000000 0.000000 1.000000
outer loop
vertex 375.000000 -204.065567 122.438667
vertex 410.000000 -202.000000 122.438667
vertex 375.000000 -202.000000 122.438667
endloop
endfacet
facet normal 1.000000 0.000000 0.000000
outer loop
vertex 414.000000 -201.085724 131.000000
vertex 414.000000 -201.085724 121.000000
vertex 414.000000 -186.012817 131.000000
endloop
endfacet
facet normal 1.000000 0.000000 0.000000
outer loop
vertex 414.000000 -186.012817 131.000000
vertex 414.000000 -201.085724 121.000000
vertex 414.000000 -186.012817 121.000000
endloop
endfacet
facet normal 1.000000 0.000000 0.000000
outer loop
vertex 410.000000 -187.612808 123.500000
vertex 410.000000 -187.646881 123.241180
vertex 410.000000 -186.012817 123.500000
endloop
endfacet
facet normal 1.000000 0.000000 0.000000
outer loop
vertex 410.000000 -186.012817 123.500000
vertex 410.000000 -187.646881 123.241180
vertex 410.000000 -187.746780 123.000000
endloop
endfacet
facet normal 1.000000 0.000000 0.000000
outer loop
vertex 410.000000 -186.012817 123.500000
vertex 410.000000 -187.746780 123.000000
vertex 410.000000 -187.905701 122.792892
endloop
endfacet
facet normal 1.000000 0.000000 0.000000
outer loop
vertex 410.000000 -187.905701 122.792892
vertex 410.000000 -188.112808 122.633980
vertex 410.000000 -186.012817 123.500000
endloop
endfacet
facet normal 1.000000 0.000026 0.000000
outer loop
vertex 410.000000 -186.012817 123.500000
vertex 410.000000 -188.112808 122.633980
vertex 410.000000 -186.000000 119.000000
endloop
endfacet
facet normal 1.000000 0.000000 0.000000
outer loop
vertex 410.000000 -186.012817 123.500000
vertex 410.000000 -186.000000 119.000000
vertex 410.000000 -186.000000 131.000000
endloop
endfacet
facet normal 1.000000 -0.000224 0.000000
outer loop
vertex 410.000000 -188.112808 122.633980
vertex 410.000000 -188.353989 122.534073
vertex 410.000000 -186.000000 119.000000
endloop
endfacet
facet normal 1.000000 0.000061 0.000000
outer loop
vertex 410.000000 -186.000000 119.000000
vertex 410.000000 -188.353989 122.534073
vertex 410.000000 -188.612808 122.500000
endloop
endfacet
facet normal 1.000000 0.000000 0.000000
outer loop
vertex 410.000000 -186.000000 119.000000
vertex 410.000000 -188.612808 122.500000
vertex 410.000000 -194.000000 122.500000
endloop
endfacet
facet normal 1.000000 0.000000 0.000000
outer loop
vertex 410.000000 -194.000000 122.500000
vertex 410.000000 -197.553375 122.500000
vertex 410.000000 -186.000000 119.000000
endloop
endfacet
facet normal 1.000000 0.000006 0.000000
outer loop
vertex 410.000000 -186.000000 119.000000
vertex 410.000000 -197.553375 122.500000
vertex 410.000000 -202.000000 122.438667
endloop
endfacet
facet normal 1.000000 0.000000 0.000000
outer loop
vertex 410.000000 -186.000000 119.000000
vertex 410.000000 -202.000000 122.438667
vertex 410.000000 -216.000000 119.000000
endloop
endfacet
facet normal 1.000000 0.000000 0.000000
outer loop
vertex 410.000000 -216.000000 119.000000
vertex 410.000000 -202.000000 122.438667
vertex 410.000000 -204.065567 122.438667
endloop
endfacet
facet normal 1.000000 -0.000012 0.000000
outer loop
vertex 410.000000 -216.000000 119.000000
vertex 410.000000 -204.065567 122.438667
vertex 410.000000 -204.937958 122.623131
endloop
endfacet
facet normal 1.000000 0.000000 0.000000
outer loop
vertex 410.000000 -204.937958 122.623131
vertex 410.000000 -204.065567 122.438667
vertex 410.000000 -204.065567 122.457451
endloop
endfacet
facet normal 1.000000 0.000000 0.000000
outer loop
vertex 410.000000 -197.553375 122.500000
vertex 410.000000 -197.812195 122.534073
vertex 410.000000 -202.000000 122.438667
endloop
endfacet
facet normal 1.000000 0.000000 0.000000
outer loop
vertex 410.000000 -202.000000 122.438667
vertex 410.000000 -197.812195 122.534073
vertex 410.000000 -198.053375 122.633980
endloop
endfacet
facet normal 1.000000 0.000000 0.000000
outer loop
vertex 410.000000 -202.000000 122.438667
vertex 410.000000 -198.053375 122.633980
vertex 410.000000 -198.260468 122.792892
endloop
endfacet
facet normal 1.000000 0.000000 0.000000
outer loop
vertex 410.000000 -198.260468 122.792892
vertex 410.000000 -198.419388 123.000000
vertex 410.000000 -202.000000 122.438667
endloop
endfacet
facet normal 1.000000 0.000033 0.000000
outer loop
vertex 410.000000 -202.000000 122.438667
vertex 410.000000 -198.419388 123.000000
vertex 410.000000 -198.519287 123.241180
endloop
endfacet
facet normal 1.000000 0.000000 0.000000
outer loop
vertex 410.000000 -202.000000 122.438667
vertex 410.000000 -198.519287 123.241180
vertex 410.000000 -198.553375 123.500000
endloop
endfacet
facet normal 1.000000 0.000000 0.000000
outer loop
vertex 410.000000 -198.553375 131.000000
vertex 410.000000 -202.000000 131.000000
vertex 410.000000 -198.553375 123.500000
endloop
endfacet
facet normal 1.000000 0.000000 0.000000
outer loop
vertex 410.000000 -198.553375 123.500000
vertex 410.000000 -202.000000 131.000000
vertex 410.000000 -202.000000 122.438667
endloop
endfacet
facet normal 1.000000 0.000000 0.000000
outer loop
vertex 410.000000 -204.937958 122.623131
vertex 410.000000 -205.803741 122.852280
vertex 410.000000 -216.000000 119.000000
endloop
endfacet
facet normal 1.000000 -0.000024 0.000000
outer loop
vertex 410.000000 -216.000000 119.000000
vertex 410.000000 -205.803741 122.852280
vertex 410.000000 -206.656357 123.143181
endloop
endfacet
facet normal 1.000000 0.000018 0.000000
outer loop
vertex 410.000000 -216.000000 119.000000
vertex 410.000000 -206.656357 123.143181
vertex 410.000000 -207.489349 123.493614
endloop
endfacet
facet normal 1.000000 0.000000 0.000000
outer loop
vertex 410.000000 -207.489349 123.493614
vertex 410.000000 -208.296387 123.900925
vertex 410.000000 -216.000000 119.000000
endloop
endfacet
facet normal 1.000000 0.000021 0.000000
outer loop
vertex 410.000000 -216.000000 119.000000
vertex 410.000000 -208.296387 123.900925
vertex 410.000000 -209.071365 124.362038
endloop
endfacet
facet normal 1.000000 -0.000033 0.000000
outer loop
vertex 410.000000 -216.000000 119.000000
vertex 410.000000 -209.071365 124.362038
vertex 410.000000 -209.808411 124.873451
endloop
endfacet
facet normal 1.000000 0.000000 0.000000
outer loop
vertex 410.000000 -209.808411 124.873451
vertex 410.000000 -210.501938 125.431290
vertex 410.000000 -216.000000 119.000000
endloop
endfacet
facet normal 1.000000 -0.000045 0.000000
outer loop
vertex 410.000000 -216.000000 119.000000
vertex 410.000000 -210.501938 125.431290
vertex 410.000000 -211.146683 126.031319
endloop
endfacet
facet normal 1.000000 -0.000017 0.000000
outer loop
vertex 410.000000 -216.000000 119.000000
vertex 410.000000 -211.146683 126.031319
vertex 410.000000 -211.737778 126.669006
endloop
endfacet
facet normal 1.000000 0.000070 0.000000
outer loop
vertex 410.000000 -211.737778 126.669006
vertex 410.000000 -212.270737 127.339516
vertex 410.000000 -216.000000 119.000000
endloop
endfacet
facet normal 1.000000 0.000019 0.000000
outer loop
vertex 410.000000 -216.000000 119.000000
vertex 410.000000 -212.270737 127.339516
vertex 410.000000 -212.741516 128.037766
endloop
endfacet
facet normal 1.000000 0.000000 0.000000
outer loop
vertex 410.000000 -216.000000 119.000000
vertex 410.000000 -212.741516 128.037766
vertex 410.000000 -216.000000 131.000000
endloop
endfacet
facet normal 1.000000 -0.000053 0.000000
outer loop
vertex 410.000000 -216.000000 131.000000
vertex 410.000000 -212.741516 128.037766
vertex 410.000000 -213.146545 128.758453
endloop
endfacet
facet normal 1.000000 0.000045 0.000000
outer loop
vertex 410.000000 -216.000000 131.000000
vertex 410.000000 -213.146545 128.758453
vertex 410.000000 -213.482773 129.496140
endloop
endfacet
facet normal 1.000000 -0.000041 0.000000
outer loop
vertex 410.000000 -213.482773 129.496140
vertex 410.000000 -213.747635 130.245209
vertex 410.000000 -216.000000 131.000000
endloop
endfacet
facet normal 1.000000 0.000000 0.000000
outer loop
vertex 410.000000 -216.000000 131.000000
vertex 410.000000 -213.747635 130.245209
vertex 410.000000 -213.939117 131.000000
endloop
endfacet
facet normal 1.000000 0.000000 0.000000
outer loop
vertex 410.000000 -186.000000 131.000000
vertex 410.000000 -186.012817 131.000000
vertex 410.000000 -186.012817 123.500000
endloop
endfacet
facet normal 0.994864 0.101220 0.000000
outer loop
vertex 389.561401 -198.603897 131.000000
vertex 389.561401 -198.603897 119.000000
vertex 389.500000 -198.000000 131.000000
endloop
endfacet
facet normal 0.994878 0.101087 0.000000
outer loop
vertex 389.500000 -198.000000 131.000000
vertex 389.561401 -198.603897 119.000000
vertex 389.500000 -198.000000 119.000000
endloop
endfacet
facet normal 0.994878 -0.101087 0.000000
outer loop
vertex 389.500000 -198.000000 131.000000
vertex 389.500000 -198.000000 119.000000
vertex 389.561401 -197.396103 131.000000
endloop
endfacet
facet normal 0.994864 -0.101220 0.000000
outer loop
vertex 389.561401 -197.396103 131.000000
vertex 389.500000 -198.000000 119.000000
vertex 389.561401 -197.396103 119.000000
endloop
endfacet
facet normal 0.954137 -0.299369 0.000000
outer loop
vertex 389.561401 -197.396103 131.000000
vertex 389.561401 -197.396103 119.000000
vertex 389.743134 -196.816925 131.000000
endloop
endfacet
facet normal 0.954137 -0.299369 0.000000
outer loop
vertex 389.743134 -196.816925 131.000000
vertex 389.561401 -197.396103 119.000000
vertex 389.743134 -196.816925 119.000000
endloop
endfacet
facet normal 0.874278 -0.485425 0.000000
outer loop
vertex 389.743134 -196.816925 131.000000
vertex 389.743134 -196.816925 119.000000
vertex 390.037720 -196.286194 131.000000
endloop
endfacet
facet normal 0.874392 -0.485220 0.000000
outer loop
vertex 390.037720 -196.286194 131.000000
vertex 389.743134 -196.816925 119.000000
vertex 390.037720 -196.286194 119.000000
endloop
endfacet
facet normal 0.758726 -0.651409 0.000000
outer loop
vertex 390.037720 -196.286194 131.000000
vertex 390.037720 -196.286194 119.000000
vertex 390.433105 -195.825623 131.000000
endloop
endfacet
facet normal 0.758793 -0.651332 0.000000
outer loop
vertex 390.433105 -195.825623 131.000000
vertex 390.037720 -196.286194 119.000000
vertex 390.433105 -195.825623 119.000000
endloop
endfacet
facet normal 0.612126 -0.790761 0.000000
outer loop
vertex 390.433105 -195.825623 131.000000
vertex 390.433105 -195.825623 119.000000
vertex 390.913116 -195.454071 131.000000
endloop
endfacet
facet normal 0.612061 -0.790811 0.000000
outer loop
vertex 390.913116 -195.454071 131.000000
vertex 390.433105 -195.825623 119.000000
vertex 390.913116 -195.454071 119.000000
endloop
endfacet
facet normal 0.440390 -0.897806 0.000000
outer loop
vertex 390.913116 -195.454071 131.000000
vertex 390.913116 -195.454071 119.000000
vertex 391.458099 -195.186737 131.000000
endloop
endfacet
facet normal 0.440443 -0.897780 0.000000
outer loop
vertex 391.458099 -195.186737 131.000000
vertex 390.913116 -195.454071 119.000000
vertex 391.458099 -195.186737 119.000000
endloop
endfacet
facet normal 0.250675 -0.968071 0.000000
outer loop
vertex 391.458099 -195.186737 131.000000
vertex 391.458099 -195.186737 119.000000
vertex 392.045715 -195.034592 131.000000
endloop
endfacet
facet normal 0.250609 -0.968088 0.000000
outer loop
vertex 392.045715 -195.034592 131.000000
vertex 391.458099 -195.186737 119.000000
vertex 392.045715 -195.034592 119.000000
endloop
endfacet
facet normal 0.050662 -0.998716 0.000000
outer loop
vertex 392.045715 -195.034592 131.000000
vertex 392.045715 -195.034592 119.000000
vertex 392.651947 -195.003845 131.000000
endloop
endfacet
facet normal 0.050648 -0.998717 0.000000
outer loop
vertex 392.651947 -195.003845 131.000000
vertex 392.045715 -195.034592 119.000000
vertex 392.651947 -195.003845 119.000000
endloop
endfacet
facet normal -0.151407 -0.988471 0.000000
outer loop
vertex 392.651947 -195.003845 131.000000
vertex 392.651947 -195.003845 119.000000
vertex 393.251953 -195.095764 131.000000
endloop
endfacet
facet normal -0.151448 -0.988465 0.000000
outer loop
vertex 393.251953 -195.095764 131.000000
vertex 392.651947 -195.003845 119.000000
vertex 393.251953 -195.095764 119.000000
endloop
endfacet
facet normal -0.347330 -0.937743 0.000000
outer loop
vertex 393.251953 -195.095764 131.000000
vertex 393.251953 -195.095764 119.000000
vertex 393.821198 -195.306580 131.000000
endloop
endfacet
facet normal -0.347242 -0.937775 0.000000
outer loop
vertex 393.821198 -195.306580 131.000000
vertex 393.251953 -195.095764 119.000000
vertex 393.821198 -195.306580 119.000000
endloop
endfacet
facet normal -0.528968 -0.848642 0.000000
outer loop
vertex 393.821198 -195.306580 131.000000
vertex 393.821198 -195.306580 119.000000
vertex 394.336334 -195.627670 131.000000
endloop
endfacet
facet normal -0.528968 -0.848642 0.000000
outer loop
vertex 394.336334 -195.627670 131.000000
vertex 393.821198 -195.306580 119.000000
vertex 394.336334 -195.627670 119.000000
endloop
endfacet
facet normal -0.688982 -0.724778 0.000000
outer loop
vertex 394.336334 -195.627670 131.000000
vertex 394.336334 -195.627670 119.000000
vertex 394.776276 -196.045883 131.000000
endloop
endfacet
facet normal -0.688982 -0.724778 0.000000
outer loop
vertex 394.776276 -196.045883 131.000000
vertex 394.336334 -195.627670 119.000000
vertex 394.776276 -196.045883 119.000000
endloop
endfacet
facet normal -0.820831 -0.571171 0.000000
outer loop
vertex 394.776276 -196.045883 131.000000
vertex 394.776276 -196.045883 119.000000
vertex 395.123047 -196.544098 131.000000
endloop
endfacet
facet normal -0.820706 -0.571351 0.000000
outer loop
vertex 395.123047 -196.544098 131.000000
vertex 394.776276 -196.045883 119.000000
vertex 395.123047 -196.544098 119.000000
endloop
endfacet
facet normal -0.918932 -0.394416 0.000000
outer loop
vertex 395.123047 -196.544098 131.000000
vertex 395.123047 -196.544098 119.000000
vertex 395.362427 -197.101913 131.000000
endloop
endfacet
facet normal -0.918981 -0.394303 0.000000
outer loop
vertex 395.362427 -197.101913 131.000000
vertex 395.123047 -196.544098 119.000000
vertex 395.362427 -197.101913 119.000000
endloop
endfacet
facet normal -0.979542 -0.201241 0.000000
outer loop
vertex 395.362427 -197.101913 131.000000
vertex 395.362427 -197.101913 119.000000
vertex 395.484619 -197.696487 131.000000
endloop
endfacet
facet normal -0.979515 -0.201370 0.000000
outer loop
vertex 395.484619 -197.696487 131.000000
vertex 395.362427 -197.101913 119.000000
vertex 395.484619 -197.696487 119.000000
endloop
endfacet
facet normal -1.000000 0.000000 0.000000
outer loop
vertex 395.484619 -197.696487 131.000000
vertex 395.484619 -197.696487 119.000000
vertex 395.484619 -198.303513 131.000000
endloop
endfacet
facet normal -1.000000 0.000000 0.000000
outer loop
vertex 395.484619 -198.303513 131.000000
vertex 395.484619 -197.696487 119.000000
vertex 395.484619 -198.303513 119.000000
endloop
endfacet
facet normal -0.979515 0.201370 0.000000
outer loop
vertex 395.484619 -198.303513 131.000000
vertex 395.484619 -198.303513 119.000000
vertex 395.362427 -198.898087 131.000000
endloop
endfacet
facet normal -0.979542 0.201241 0.000000
outer loop
vertex 395.362427 -198.898087 131.000000
vertex 395.484619 -198.303513 119.000000
vertex 395.362427 -198.898087 119.000000
endloop
endfacet
facet normal -0.918981 0.394303 0.000000
outer loop
vertex 395.362427 -198.898087 131.000000
vertex 395.362427 -198.898087 119.000000
vertex 395.123047 -199.455902 131.000000
endloop
endfacet
facet normal -0.918932 0.394416 0.000000
outer loop
vertex 395.123047 -199.455902 131.000000
vertex 395.362427 -198.898087 119.000000
vertex 395.123047 -199.455902 119.000000
endloop
endfacet
facet normal -0.820706 0.571351 0.000000
outer loop
vertex 395.123047 -199.455902 131.000000
vertex 395.123047 -199.455902 119.000000
vertex 394.776276 -199.954117 131.000000
endloop
endfacet
facet normal -0.820831 0.571171 0.000000
outer loop
vertex 394.776276 -199.954117 131.000000
vertex 395.123047 -199.455902 119.000000
vertex 394.776276 -199.954117 119.000000
endloop
endfacet
facet normal -0.688982 0.724778 0.000000
outer loop
vertex 394.776276 -199.954117 131.000000
vertex 394.776276 -199.954117 119.000000
vertex 394.336334 -200.372330 131.000000
endloop
endfacet
facet normal -0.688982 0.724778 0.000000
outer loop
vertex 394.336334 -200.372330 131.000000
vertex 394.776276 -199.954117 119.000000
vertex 394.336334 -200.372330 119.000000
endloop
endfacet
facet normal -0.528968 0.848642 0.000000
outer loop
vertex 394.336334 -200.372330 131.000000
vertex 394.336334 -200.372330 119.000000
vertex 393.821198 -200.693420 131.000000
endloop
endfacet
facet normal -0.528968 0.848642 0.000000
outer loop
vertex 393.821198 -200.693420 131.000000
vertex 394.336334 -200.372330 119.000000
vertex 393.821198 -200.693420 119.000000
endloop
endfacet
facet normal -0.347242 0.937775 0.000000
outer loop
vertex 393.821198 -200.693420 131.000000
vertex 393.821198 -200.693420 119.000000
vertex 393.251953 -200.904236 131.000000
endloop
endfacet
facet normal -0.347330 0.937743 0.000000
outer loop
vertex 393.251953 -200.904236 131.000000
vertex 393.821198 -200.693420 119.000000
vertex 393.251953 -200.904236 119.000000
endloop
endfacet
facet normal -0.151448 0.988465 0.000000
outer loop
vertex 393.251953 -200.904236 131.000000
vertex 393.251953 -200.904236 119.000000
vertex 392.651947 -200.996155 131.000000
endloop
endfacet
facet normal -0.151407 0.988471 0.000000
outer loop
vertex 392.651947 -200.996155 131.000000
vertex 393.251953 -200.904236 119.000000
vertex 392.651947 -200.996155 119.000000
endloop
endfacet
facet normal 0.050648 0.998717 0.000000
outer loop
vertex 392.651947 -200.996155 131.000000
vertex 392.651947 -200.996155 119.000000
vertex 392.045715 -200.965408 131.000000
endloop
endfacet
facet normal 0.050662 0.998716 0.000000
outer loop
vertex 392.045715 -200.965408 131.000000
vertex 392.651947 -200.996155 119.000000
vertex 392.045715 -200.965408 119.000000
endloop
endfacet
facet normal 0.250609 0.968088 0.000000
outer loop
vertex 392.045715 -200.965408 131.000000
vertex 392.045715 -200.965408 119.000000
vertex 391.458099 -200.813263 131.000000
endloop
endfacet
facet normal 0.250675 0.968071 0.000000
outer loop
vertex 391.458099 -200.813263 131.000000
vertex 392.045715 -200.965408 119.000000
vertex 391.458099 -200.813263 119.000000
endloop
endfacet
facet normal 0.440443 0.897780 0.000000
outer loop
vertex 391.458099 -200.813263 131.000000
vertex 391.458099 -200.813263 119.000000
vertex 390.913116 -200.545929 131.000000
endloop
endfacet
facet normal 0.440390 0.897806 0.000000
outer loop
vertex 390.913116 -200.545929 131.000000
vertex 391.458099 -200.813263 119.000000
vertex 390.913116 -200.545929 119.000000
endloop
endfacet
facet normal 0.612061 0.790811 0.000000
outer loop
vertex 390.913116 -200.545929 131.000000
vertex 390.913116 -200.545929 119.000000
vertex 390.433105 -200.174377 131.000000
endloop
endfacet
facet normal 0.612126 0.790761 0.000000
outer loop
vertex 390.433105 -200.174377 131.000000
vertex 390.913116 -200.545929 119.000000
vertex 390.433105 -200.174377 119.000000
endloop
endfacet
facet normal 0.758793 0.651332 0.000000
outer loop
vertex 390.433105 -200.174377 131.000000
vertex 390.433105 -200.174377 119.000000
vertex 390.037720 -199.713806 131.000000
endloop
endfacet
facet normal 0.758726 0.651409 0.000000
outer loop
vertex 390.037720 -199.713806 131.000000
vertex 390.433105 -200.174377 119.000000
vertex 390.037720 -199.713806 119.000000
endloop
endfacet
facet normal 0.874392 0.485220 0.000000
outer loop
vertex 390.037720 -199.713806 131.000000
vertex 390.037720 -199.713806 119.000000
vertex 389.743134 -199.183075 131.000000
endloop
endfacet
facet normal 0.874278 0.485425 0.000000
outer loop
vertex 389.743134 -199.183075 131.000000
vertex 390.037720 -199.713806 119.000000
vertex 389.743134 -199.183075 119.000000
endloop
endfacet
facet normal 0.954137 0.299369 0.000000
outer loop
vertex 389.743134 -199.183075 131.000000
vertex 389.743134 -199.183075 119.000000
vertex 389.561401 -198.603897 131.000000
endloop
endfacet
facet normal 0.954137 0.299369 0.000000
outer loop
vertex 389.561401 -198.603897 131.000000
vertex 389.743134 -199.183075 119.000000
vertex 389.561401 -198.603897 119.000000
endloop
endfacet
facet normal 0.000000 -1.000000 0.000000
outer loop
vertex 375.000000 -202.000000 122.438667
vertex 410.000000 -202.000000 122.438667
vertex 375.000000 -202.000000 131.000000
endloop
endfacet
facet normal 0.000000 -1.000000 0.000000
outer loop
vertex 375.000000 -202.000000 131.000000
vertex 410.000000 -202.000000 122.438667
vertex 410.000000 -202.000000 131.000000
endloop
endfacet
facet normal 0.000000 0.000000 1.000000
outer loop
vertex 375.000000 -216.000000 131.000000
vertex 410.000000 -216.000000 131.000000
vertex 375.000000 -213.939117 131.000000
endloop
endfacet
facet normal 0.000000 0.000000 1.000000
outer loop
vertex 375.000000 -213.939117 131.000000
vertex 410.000000 -216.000000 131.000000
vertex 410.000000 -213.939117 131.000000
endloop
endfacet
facet normal 0.000000 0.000000 -1.000000
outer loop
vertex 389.561401 -197.396103 119.000000
vertex 389.500000 -198.000000 119.000000
vertex 375.000000 -186.000000 119.000000
endloop
endfacet
facet normal -0.000004 0.000000 -1.000000
outer loop
vertex 375.000000 -186.000000 119.000000
vertex 389.500000 -198.000000 119.000000
vertex 389.561401 -198.603897 119.000000
endloop
endfacet
facet normal 0.000000 0.000000 -1.000000
outer loop
vertex 375.000000 -186.000000 119.000000
vertex 389.561401 -198.603897 119.000000
vertex 375.000000 -216.000000 119.000000
endloop
endfacet
facet normal 0.000008 0.000000 -1.000000
outer loop
vertex 375.000000 -216.000000 119.000000
vertex 389.561401 -198.603897 119.000000
vertex 389.743134 -199.183075 119.000000
endloop
endfacet
facet normal 0.000005 0.000000 -1.000000
outer loop
vertex 375.000000 -216.000000 119.000000
vertex 389.743134 -199.183075 119.000000
vertex 390.037720 -199.713806 119.000000
endloop
endfacet
facet normal -0.000018 0.000000 -1.000000
outer loop
vertex 390.037720 -199.713806 119.000000
vertex 390.433105 -200.174377 119.000000
vertex 375.000000 -216.000000 119.000000
endloop
endfacet
facet normal 0.000005 0.000000 -1.000000
outer loop
vertex 375.000000 -216.000000 119.000000
vertex 390.433105 -200.174377 119.000000
vertex 390.913116 -200.545929 119.000000
endloop
endfacet
facet normal 0.000000 0.000000 -1.000000
outer loop
vertex 375.000000 -216.000000 119.000000
vertex 390.913116 -200.545929 119.000000
vertex 391.458099 -200.813263 119.000000
endloop
endfacet
facet normal 0.000021 0.000000 -1.000000
outer loop
vertex 391.458099 -200.813263 119.000000
vertex 392.045715 -200.965408 119.000000
vertex 375.000000 -216.000000 119.000000
endloop
endfacet
facet normal -0.000022 0.000000 -1.000000
outer loop
vertex 375.000000 -216.000000 119.000000
vertex 392.045715 -200.965408 119.000000
vertex 392.651947 -200.996155 119.000000
endloop
endfacet
facet normal 0.000000 0.000000 -1.000000
outer loop
vertex 375.000000 -216.000000 119.000000
vertex 392.651947 -200.996155 119.000000
vertex 410.000000 -216.000000 119.000000
endloop
endfacet
facet normal 0.000023 0.000000 -1.000000
outer loop
vertex 410.000000 -216.000000 119.000000
vertex 392.651947 -200.996155 119.000000
vertex 393.251953 -200.904236 119.000000
endloop
endfacet
facet normal -0.000020 0.000000 -1.000000
outer loop
vertex 410.000000 -216.000000 119.000000
vertex 393.251953 -200.904236 119.000000
vertex 393.821198 -200.693420 119.000000
endloop
endfacet
facet normal 0.000000 0.000000 -1.000000
outer loop
vertex 393.821198 -200.693420 119.000000
vertex 394.336334 -200.372330 119.000000
vertex 410.000000 -216.000000 119.000000
endloop
endfacet
facet normal 0.000000 0.000000 -1.000000
outer loop
vertex 410.000000 -216.000000 119.000000
vertex 394.336334 -200.372330 119.000000
vertex 394.776276 -199.954117 119.000000
endloop
endfacet
facet normal 0.000007 0.000000 -1.000000
outer loop
vertex 410.000000 -216.000000 119.000000
vertex 394.776276 -199.954117 119.000000
vertex 395.123047 -199.455902 119.000000
endloop
endfacet
facet normal 0.000000 0.000000 -1.000000
outer loop
vertex 395.123047 -199.455902 119.000000
vertex 395.362427 -198.898087 119.000000
vertex 410.000000 -216.000000 119.000000
endloop
endfacet
facet normal 0.000017 0.000000 -1.000000
outer loop
vertex 410.000000 -216.000000 119.000000
vertex 395.362427 -198.898087 119.000000
vertex 395.484619 -198.303513 119.000000
endloop
endfacet
facet normal -0.000001 0.000000 -1.000000
outer loop
vertex 410.000000 -216.000000 119.000000
vertex 395.484619 -198.303513 119.000000
vertex 410.000000 -186.000000 119.000000
endloop
endfacet
facet normal 0.000021 0.000000 -1.000000
outer loop
vertex 410.000000 -186.000000 119.000000
vertex 395.484619 -198.303513 119.000000
vertex 395.484619 -197.696487 119.000000
endloop
endfacet
facet normal -0.000006 0.000000 -1.000000
outer loop
vertex 410.000000 -186.000000 119.000000
vertex 395.484619 -197.696487 119.000000
vertex 395.362427 -197.101913 119.000000
endloop
endfacet
facet normal 0.000000 0.000000 -1.000000
outer loop
vertex 395.362427 -197.101913 119.000000
vertex 395.123047 -196.544098 119.000000
vertex 410.000000 -186.000000 119.000000
endloop
endfacet
facet normal 0.000008 0.000000 -1.000000
outer loop
vertex 410.000000 -186.000000 119.000000
vertex 395.123047 -196.544098 119.000000
vertex 394.776276 -196.045883 119.000000
endloop
endfacet
facet normal 0.000000 0.000000 -1.000000
outer loop
vertex 410.000000 -186.000000 119.000000
vertex 394.776276 -196.045883 119.000000
vertex 394.336334 -195.627670 119.000000
endloop
endfacet
facet normal 0.000000 0.000000 -1.000000
outer loop
vertex 394.336334 -195.627670 119.000000
vertex 393.821198 -195.306580 119.000000
vertex 410.000000 -186.000000 119.000000
endloop
endfacet
facet normal -0.000028 0.000000 -1.000000
outer loop
vertex 410.000000 -186.000000 119.000000
vertex 393.821198 -195.306580 119.000000
vertex 393.251953 -195.095764 119.000000
endloop
endfacet
facet normal 0.000035 0.000000 -1.000000
outer loop
vertex 410.000000 -186.000000 119.000000
vertex 393.251953 -195.095764 119.000000
vertex 392.651947 -195.003845 119.000000
endloop
endfacet
facet normal 0.000000 0.000000 -1.000000
outer loop
vertex 410.000000 -186.000000 119.000000
vertex 392.651947 -195.003845 119.000000
vertex 375.000000 -186.000000 119.000000
endloop
endfacet
facet normal -0.000036 0.000000 -1.000000
outer loop
vertex 375.000000 -186.000000 119.000000
vertex 392.651947 -195.003845 119.000000
vertex 392.045715 -195.034592 119.000000
endloop
endfacet
facet normal 0.000019 0.000000 -1.000000
outer loop
vertex 375.000000 -186.000000 119.000000
vertex 392.045715 -195.034592 119.000000
vertex 391.458099 -195.186737 119.000000
endloop
endfacet
facet normal 0.000000 0.000000 -1.000000
outer loop
vertex 391.458099 -195.186737 119.000000
vertex 390.913116 -195.454071 119.000000
vertex 375.000000 -186.000000 119.000000
endloop
endfacet
facet normal 0.000006 0.000000 -1.000000
outer loop
vertex 375.000000 -186.000000 119.000000
vertex 390.913116 -195.454071 119.000000
vertex 390.433105 -195.825623 119.000000
endloop
endfacet
facet normal -0.000022 0.000000 -1.000000
outer loop
vertex 375.000000 -186.000000 119.000000
vertex 390.433105 -195.825623 119.000000
vertex 390.037720 -196.286194 119.000000
endloop
endfacet
facet normal 0.000000 0.000000 -1.000000
outer loop
vertex 390.037720 -196.286194 119.000000
vertex 389.743134 -196.816925 119.000000
vertex 375.000000 -186.000000 119.000000
endloop
endfacet
facet normal 0.000009 0.000000 -1.000000
outer loop
vertex 375.000000 -186.000000 119.000000
vertex 389.743134 -196.816925 119.000000
vertex 389.561401 -197.396103 119.000000
endloop
endfacet
facet normal 0.000000 -1.000000 0.000000
outer loop
vertex 410.000000 -216.000000 131.000000
vertex 375.000000 -216.000000 131.000000
vertex 410.000000 -216.000000 119.000000
endloop
endfacet
facet normal 0.000000 -1.000000 0.000000
outer loop
vertex 410.000000 -216.000000 119.000000
vertex 375.000000 -216.000000 131.000000
vertex 375.000000 -216.000000 119.000000
endloop
endfacet
facet normal 0.000000 -1.000000 0.000000
outer loop
vertex 375.000000 -198.553375 131.000000
vertex 373.000000 -198.553375 131.000000
vertex 375.000000 -198.553375 123.500000
endloop
endfacet
facet normal 0.000000 -1.000000 0.000000
outer loop
vertex 375.000000 -198.553375 123.500000
vertex 373.000000 -198.553375 131.000000
vertex 373.000000 -198.553375 123.500000
endloop
endfacet
facet normal 0.000000 0.000000 -1.000000
outer loop
vertex 371.000000 -201.085724 121.000000
vertex 371.000000 -186.012817 121.000000
vertex 373.000000 -201.085724 121.000000
endloop
endfacet
facet normal 0.000000 0.000000 -1.000000
outer loop
vertex 373.000000 -201.085724 121.000000
vertex 371.000000 -186.012817 121.000000
vertex 373.000000 -186.012817 121.000000
endloop
endfacet
facet normal 0.000000 -0.991438 -0.130579
outer loop
vertex 375.000000 -198.553375 123.500000
vertex 373.000000 -198.553375 123.500000
vertex 375.000000 -198.519287 123.241180
endloop
endfacet
facet normal 0.000000 -0.991438 -0.130579
outer loop
vertex 375.000000 -198.519287 123.241180
vertex 373.000000 -198.553375 123.500000
vertex 373.000000 -198.519287 123.241180
endloop
endfacet
facet normal 0.000000 -0.923860 -0.382730
outer loop
vertex 375.000000 -198.519287 123.241180
vertex 373.000000 -198.519287 123.241180
vertex 375.000000 -198.419388 123.000000
endloop
endfacet
facet normal 0.000000 -0.923901 -0.382631
outer loop
vertex 375.000000 -198.419388 123.000000
vertex 373.000000 -198.519287 123.241180
vertex 373.000000 -198.419388 123.000000
endloop
endfacet
facet normal 0.000000 -0.793380 -0.608727
outer loop
vertex 375.000000 -198.419388 123.000000
vertex 373.000000 -198.419388 123.000000
vertex 375.000000 -198.260468 122.792892
endloop
endfacet
facet normal 0.000000 -0.793323 -0.608801
outer loop
vertex 375.000000 -198.260468 122.792892
vertex 373.000000 -198.419388 123.000000
vertex 373.000000 -198.260468 122.792892
endloop
endfacet
facet normal 0.000000 -0.608774 -0.793344
outer loop
vertex 375.000000 -198.260468 122.792892
vertex 373.000000 -198.260468 122.792892
vertex 375.000000 -198.053375 122.633980
endloop
endfacet
facet normal 0.000000 -0.608774 -0.793344
outer loop
vertex 375.000000 -198.053375 122.633980
vertex 373.000000 -198.260468 122.792892
vertex 373.000000 -198.053375 122.633980
endloop
endfacet
facet normal 0.000000 -0.382705 -0.923871
outer loop
vertex 375.000000 -198.053375 122.633980
vertex 373.000000 -198.053375 122.633980
vertex 375.000000 -197.812195 122.534073
endloop
endfacet
facet normal 0.000000 -0.382705 -0.923871
outer loop
vertex 375.000000 -197.812195 122.534073
vertex 373.000000 -198.053375 122.633980
vertex 373.000000 -197.812195 122.534073
endloop
endfacet
facet normal 0.000000 -0.130521 -0.991446
outer loop
vertex 375.000000 -197.812195 122.534073
vertex 373.000000 -197.812195 122.534073
vertex 375.000000 -197.553375 122.500000
endloop
endfacet
facet normal 0.000000 -0.130521 -0.991446
outer loop
vertex 375.000000 -197.553375 122.500000
vertex 373.000000 -197.812195 122.534073
vertex 373.000000 -197.553375 122.500000
endloop
endfacet
facet normal 0.000000 0.130521 -0.991446
outer loop
vertex 375.000000 -188.612808 122.500000
vertex 373.000000 -188.612808 122.500000
vertex 375.000000 -188.353989 122.534073
endloop
endfacet
facet normal 0.000000 0.130521 -0.991446
outer loop
vertex 375.000000 -188.353989 122.534073
vertex 373.000000 -188.612808 122.500000
vertex 373.000000 -188.353989 122.534073
endloop
endfacet
facet normal 0.000000 0.382705 -0.923871
outer loop
vertex 375.000000 -188.353989 122.534073
vertex 373.000000 -188.353989 122.534073
vertex 375.000000 -188.112808 122.633980
endloop
endfacet
facet normal 0.000000 0.382705 -0.923871
outer loop
vertex 375.000000 -188.112808 122.633980
vertex 373.000000 -188.353989 122.534073
vertex 373.000000 -188.112808 122.633980
endloop
endfacet
facet normal 0.000000 0.608717 -0.793387
outer loop
vertex 375.000000 -188.112808 122.633980
vertex 373.000000 -188.112808 122.633980
vertex 375.000000 -187.905701 122.792892
endloop
endfacet
facet normal 0.000000 0.608774 -0.793344
outer loop
vertex 375.000000 -187.905701 122.792892
vertex 373.000000 -188.112808 122.633980
vertex 373.000000 -187.905701 122.792892
endloop
endfacet
facet normal 0.000000 0.793323 -0.608801
outer loop
vertex 375.000000 -187.905701 122.792892
vertex 373.000000 -187.905701 122.792892
vertex 375.000000 -187.746780 123.000000
endloop
endfacet
facet normal 0.000000 0.793380 -0.608727
outer loop
vertex 375.000000 -187.746780 123.000000
vertex 373.000000 -187.905701 122.792892
vertex 373.000000 -187.746780 123.000000
endloop
endfacet
facet normal 0.000000 0.923901 -0.382631
outer loop
vertex 375.000000 -187.746780 123.000000
vertex 373.000000 -187.746780 123.000000
vertex 375.000000 -187.646881 123.241180
endloop
endfacet
facet normal 0.000000 0.923860 -0.382730
outer loop
vertex 375.000000 -187.646881 123.241180
vertex 373.000000 -187.746780 123.000000
vertex 373.000000 -187.646881 123.241180
endloop
endfacet
facet normal 0.000000 0.991453 -0.130464
outer loop
vertex 375.000000 -187.646881 123.241180
vertex 373.000000 -187.646881 123.241180
vertex 375.000000 -187.612808 123.500000
endloop
endfacet
facet normal 0.000000 0.991438 -0.130579
outer loop
vertex 375.000000 -187.612808 123.500000
vertex 373.000000 -187.646881 123.241180
vertex 373.000000 -187.612808 123.500000
endloop
endfacet
facet normal 0.000000 0.000000 -1.000000
outer loop
vertex 373.000000 -197.553375 122.500000
vertex 373.000000 -188.612808 122.500000
vertex 375.000000 -197.553375 122.500000
endloop
endfacet
facet normal 0.000000 0.000000 -1.000000
outer loop
vertex 375.000000 -197.553375 122.500000
vertex 373.000000 -188.612808 122.500000
vertex 375.000000 -188.612808 122.500000
endloop
endfacet
facet normal 0.000000 0.000000 1.000000
outer loop
vertex 412.000000 -201.085724 131.000000
vertex 414.000000 -201.085724 131.000000
vertex 412.000000 -198.553375 131.000000
endloop
endfacet
facet normal 0.000000 0.000000 1.000000
outer loop
vertex 412.000000 -198.553375 131.000000
vertex 414.000000 -201.085724 131.000000
vertex 414.000000 -186.012817 131.000000
endloop
endfacet
facet normal 0.000000 0.000000 1.000000
outer loop
vertex 412.000000 -198.553375 131.000000
vertex 414.000000 -186.012817 131.000000
vertex 410.000000 -186.012817 131.000000
endloop
endfacet
facet normal 0.000000 0.000000 1.000000
outer loop
vertex 410.000000 -186.000000 131.000000
vertex 375.000000 -186.000000 131.000000
vertex 410.000000 -186.012817 131.000000
endloop
endfacet
facet normal 0.000000 0.000000 1.000000
outer loop
vertex 410.000000 -186.012817 131.000000
vertex 375.000000 -186.000000 131.000000
vertex 375.000000 -186.012817 131.000000
endloop
endfacet
facet normal 0.000000 0.000000 1.000000
outer loop
vertex 410.000000 -186.012817 131.000000
vertex 375.000000 -186.012817 131.000000
vertex 392.651947 -195.003845 131.000000
endloop
endfacet
facet normal -0.000041 0.000000 1.000000
outer loop
vertex 392.651947 -195.003845 131.000000
vertex 375.000000 -186.012817 131.000000
vertex 392.045715 -195.034592 131.000000
endloop
endfacet
facet normal 0.000000 0.000000 1.000000
outer loop
vertex 392.045715 -195.034592 131.000000
vertex 375.000000 -186.012817 131.000000
vertex 391.458099 -195.186737 131.000000
endloop
endfacet
facet normal 0.000000 0.000000 1.000000
outer loop
vertex 391.458099 -195.186737 131.000000
vertex 375.000000 -186.012817 131.000000
vertex 390.913116 -195.454071 131.000000
endloop
endfacet
facet normal 0.000001 0.000000 1.000000
outer loop
vertex 390.913116 -195.454071 131.000000
vertex 375.000000 -186.012817 131.000000
vertex 375.000000 -198.553375 131.000000
endloop
endfacet
facet normal 0.000000 0.000000 1.000000
outer loop
vertex 390.913116 -195.454071 131.000000
vertex 375.000000 -198.553375 131.000000
vertex 390.433105 -195.825623 131.000000
endloop
endfacet
facet normal 0.000000 0.000000 1.000000
outer loop
vertex 390.433105 -195.825623 131.000000
vertex 375.000000 -198.553375 131.000000
vertex 390.037720 -196.286194 131.000000
endloop
endfacet
facet normal 0.000000 0.000000 1.000000
outer loop
vertex 390.037720 -196.286194 131.000000
vertex 375.000000 -198.553375 131.000000
vertex 389.743134 -196.816925 131.000000
endloop
endfacet
facet normal 0.000000 0.000000 1.000000
outer loop
vertex 389.743134 -196.816925 131.000000
vertex 375.000000 -198.553375 131.000000
vertex 389.561401 -197.396103 131.000000
endloop
endfacet
facet normal 0.000000 0.000000 1.000000
outer loop
vertex 389.561401 -197.396103 131.000000
vertex 375.000000 -198.553375 131.000000
vertex 389.500000 -198.000000 131.000000
endloop
endfacet
facet normal 0.000000 0.000000 1.000000
outer loop
vertex 389.500000 -198.000000 131.000000
vertex 375.000000 -198.553375 131.000000
vertex 389.561401 -198.603897 131.000000
endloop
endfacet
facet normal 0.000000 0.000000 1.000000
outer loop
vertex 389.561401 -198.603897 131.000000
vertex 375.000000 -198.553375 131.000000
vertex 389.743134 -199.183075 131.000000
endloop
endfacet
facet normal 0.000000 0.000000 1.000000
outer loop
vertex 389.743134 -199.183075 131.000000
vertex 375.000000 -198.553375 131.000000
vertex 390.037720 -199.713806 131.000000
endloop
endfacet
facet normal 0.000000 0.000000 1.000000
outer loop
vertex 390.037720 -199.713806 131.000000
vertex 375.000000 -198.553375 131.000000
vertex 375.000000 -202.000000 131.000000
endloop
endfacet
facet normal 0.000000 0.000000 1.000000
outer loop
vertex 390.037720 -199.713806 131.000000
vertex 375.000000 -202.000000 131.000000
vertex 390.433105 -200.174377 131.000000
endloop
endfacet
facet normal 0.000000 0.000000 1.000000
outer loop
vertex 390.433105 -200.174377 131.000000
vertex 375.000000 -202.000000 131.000000
vertex 390.913116 -200.545929 131.000000
endloop
endfacet
facet normal 0.000000 0.000000 1.000000
outer loop
vertex 390.913116 -200.545929 131.000000
vertex 375.000000 -202.000000 131.000000
vertex 391.458099 -200.813263 131.000000
endloop
endfacet
facet normal 0.000000 0.000000 1.000000
outer loop
vertex 391.458099 -200.813263 131.000000
vertex 375.000000 -202.000000 131.000000
vertex 392.045715 -200.965408 131.000000
endloop
endfacet
facet normal 0.000000 0.000000 1.000000
outer loop
vertex 392.045715 -200.965408 131.000000
vertex 375.000000 -202.000000 131.000000
vertex 392.651947 -200.996155 131.000000
endloop
endfacet
facet normal 0.000000 0.000000 1.000000
outer loop
vertex 392.651947 -200.996155 131.000000
vertex 375.000000 -202.000000 131.000000
vertex 410.000000 -202.000000 131.000000
endloop
endfacet
facet normal 0.000000 0.000000 1.000000
outer loop
vertex 392.651947 -200.996155 131.000000
vertex 410.000000 -202.000000 131.000000
vertex 393.251953 -200.904236 131.000000
endloop
endfacet
facet normal 0.000000 0.000000 1.000000
outer loop
vertex 393.251953 -200.904236 131.000000
vertex 410.000000 -202.000000 131.000000
vertex 393.821198 -200.693420 131.000000
endloop
endfacet
facet normal 0.000000 0.000000 1.000000
outer loop
vertex 393.821198 -200.693420 131.000000
vertex 410.000000 -202.000000 131.000000
vertex 394.336334 -200.372330 131.000000
endloop
endfacet
facet normal 0.000000 0.000000 1.000000
outer loop
vertex 394.336334 -200.372330 131.000000
vertex 410.000000 -202.000000 131.000000
vertex 394.776276 -199.954117 131.000000
endloop
endfacet
facet normal -0.000007 0.000000 1.000000
outer loop
vertex 394.776276 -199.954117 131.000000
vertex 410.000000 -202.000000 131.000000
vertex 395.123047 -199.455902 131.000000
endloop
endfacet
facet normal 0.000000 0.000000 1.000000
outer loop
vertex 395.123047 -199.455902 131.000000
vertex 410.000000 -202.000000 131.000000
vertex 410.000000 -198.553375 131.000000
endloop
endfacet
facet normal 0.000000 0.000000 1.000000
outer loop
vertex 395.123047 -199.455902 131.000000
vertex 410.000000 -198.553375 131.000000
vertex 395.362427 -198.898087 131.000000
endloop
endfacet
facet normal 0.000000 0.000000 1.000000
outer loop
vertex 395.362427 -198.898087 131.000000
vertex 410.000000 -198.553375 131.000000
vertex 395.484619 -198.303513 131.000000
endloop
endfacet
facet normal 0.000000 0.000000 1.000000
outer loop
vertex 395.484619 -198.303513 131.000000
vertex 410.000000 -198.553375 131.000000
vertex 395.484619 -197.696487 131.000000
endloop
endfacet
facet normal 0.000000 0.000000 1.000000
outer loop
vertex 395.484619 -197.696487 131.000000
vertex 410.000000 -198.553375 131.000000
vertex 395.362427 -197.101913 131.000000
endloop
endfacet
facet normal 0.000000 0.000000 1.000000
outer loop
vertex 395.362427 -197.101913 131.000000
vertex 410.000000 -198.553375 131.000000
vertex 395.123047 -196.544098 131.000000
endloop
endfacet
facet normal 0.000000 0.000000 1.000000
outer loop
vertex 395.123047 -196.544098 131.000000
vertex 410.000000 -198.553375 131.000000
vertex 394.776276 -196.045883 131.000000
endloop
endfacet
facet normal 0.000000 0.000000 1.000000
outer loop
vertex 394.776276 -196.045883 131.000000
vertex 410.000000 -198.553375 131.000000
vertex 394.336334 -195.627670 131.000000
endloop
endfacet
facet normal 0.000000 0.000000 1.000000
outer loop
vertex 394.336334 -195.627670 131.000000
vertex 410.000000 -198.553375 131.000000
vertex 410.000000 -186.012817 131.000000
endloop
endfacet
facet normal 0.000000 0.000000 1.000000
outer loop
vertex 394.336334 -195.627670 131.000000
vertex 410.000000 -186.012817 131.000000
vertex 393.821198 -195.306580 131.000000
endloop
endfacet
facet normal -0.000028 0.000000 1.000000
outer loop
vertex 393.821198 -195.306580 131.000000
vertex 410.000000 -186.012817 131.000000
vertex 393.251953 -195.095764 131.000000
endloop
endfacet
facet normal 0.000035 0.000000 1.000000
outer loop
vertex 393.251953 -195.095764 131.000000
vertex 410.000000 -186.012817 131.000000
vertex 392.651947 -195.003845 131.000000
endloop
endfacet
facet normal 0.000000 0.000000 1.000000
outer loop
vertex 375.000000 -198.553375 131.000000
vertex 375.000000 -186.012817 131.000000
vertex 373.000000 -198.553375 131.000000
endloop
endfacet
facet normal 0.000000 0.000000 1.000000
outer loop
vertex 373.000000 -198.553375 131.000000
vertex 375.000000 -186.012817 131.000000
vertex 371.000000 -186.012817 131.000000
endloop
endfacet
facet normal 0.000000 0.000000 1.000000
outer loop
vertex 373.000000 -198.553375 131.000000
vertex 371.000000 -186.012817 131.000000
vertex 371.000000 -201.085724 131.000000
endloop
endfacet
facet normal 0.000000 0.000000 1.000000
outer loop
vertex 371.000000 -201.085724 131.000000
vertex 373.000000 -201.085724 131.000000
vertex 373.000000 -198.553375 131.000000
endloop
endfacet
facet normal 0.000000 0.000000 1.000000
outer loop
vertex 410.000000 -198.553375 131.000000
vertex 412.000000 -198.553375 131.000000
vertex 410.000000 -186.012817 131.000000
endloop
endfacet
facet normal 0.000000 -1.000000 0.000000
outer loop
vertex 412.000000 -198.553375 131.000000
vertex 410.000000 -198.553375 131.000000
vertex 412.000000 -198.553375 123.500000
endloop
endfacet
facet normal 0.000000 -1.000000 0.000000
outer loop
vertex 412.000000 -198.553375 123.500000
vertex 410.000000 -198.553375 131.000000
vertex 410.000000 -198.553375 123.500000
endloop
endfacet
facet normal 0.000000 0.991438 -0.130579
outer loop
vertex 410.000000 -187.612808 123.500000
vertex 412.000000 -187.612808 123.500000
vertex 410.000000 -187.646881 123.241180
endloop
endfacet
facet normal 0.000000 0.991453 -0.130464
outer loop
vertex 410.000000 -187.646881 123.241180
vertex 412.000000 -187.612808 123.500000
vertex 412.000000 -187.646881 123.241180
endloop
endfacet
facet normal 0.000000 0.923860 -0.382730
outer loop
vertex 410.000000 -187.646881 123.241180
vertex 412.000000 -187.646881 123.241180
vertex 410.000000 -187.746780 123.000000
endloop
endfacet
facet normal 0.000000 0.923901 -0.382631
outer loop
vertex 410.000000 -187.746780 123.000000
vertex 412.000000 -187.646881 123.241180
vertex 412.000000 -187.746780 123.000000
endloop
endfacet
facet normal 0.000000 0.793380 -0.608727
outer loop
vertex 410.000000 -187.746780 123.000000
vertex 412.000000 -187.746780 123.000000
vertex 410.000000 -187.905701 122.792892
endloop
endfacet
facet normal 0.000000 0.793323 -0.608801
outer loop
vertex 410.000000 -187.905701 122.792892
vertex 412.000000 -187.746780 123.000000
vertex 412.000000 -187.905701 122.792892
endloop
endfacet
facet normal 0.000000 0.608774 -0.793344
outer loop
vertex 410.000000 -187.905701 122.792892
vertex 412.000000 -187.905701 122.792892
vertex 410.000000 -188.112808 122.633980
endloop
endfacet
facet normal 0.000000 0.608717 -0.793387
outer loop
vertex 410.000000 -188.112808 122.633980
vertex 412.000000 -187.905701 122.792892
vertex 412.000000 -188.112808 122.633980
endloop
endfacet
facet normal 0.000000 0.382705 -0.923871
outer loop
vertex 410.000000 -188.112808 122.633980
vertex 412.000000 -188.112808 122.633980
vertex 410.000000 -188.353989 122.534073
endloop
endfacet
facet normal 0.000000 0.382705 -0.923871
outer loop
vertex 410.000000 -188.353989 122.534073
vertex 412.000000 -188.112808 122.633980
vertex 412.000000 -188.353989 122.534073
endloop
endfacet
facet normal 0.000000 0.130521 -0.991446
outer loop
vertex 410.000000 -188.353989 122.534073
vertex 412.000000 -188.353989 122.534073
vertex 410.000000 -188.612808 122.500000
endloop
endfacet
facet normal 0.000000 0.130521 -0.991446
outer loop
vertex 410.000000 -188.612808 122.500000
vertex 412.000000 -188.353989 122.534073
vertex 412.000000 -188.612808 122.500000
endloop
endfacet
facet normal 0.000000 -0.130521 -0.991446
outer loop
vertex 410.000000 -197.553375 122.500000
vertex 412.000000 -197.553375 122.500000
vertex 410.000000 -197.812195 122.534073
endloop
endfacet
facet normal 0.000000 -0.130521 -0.991446
outer loop
vertex 410.000000 -197.812195 122.534073
vertex 412.000000 -197.553375 122.500000
vertex 412.000000 -197.812195 122.534073
endloop
endfacet
facet normal 0.000000 -0.382705 -0.923871
outer loop
vertex 410.000000 -197.812195 122.534073
vertex 412.000000 -197.812195 122.534073
vertex 410.000000 -198.053375 122.633980
endloop
endfacet
facet normal 0.000000 -0.382705 -0.923871
outer loop
vertex 410.000000 -198.053375 122.633980
vertex 412.000000 -197.812195 122.534073
vertex 412.000000 -198.053375 122.633980
endloop
endfacet
facet normal 0.000000 -0.608774 -0.793344
outer loop
vertex 410.000000 -198.053375 122.633980
vertex 412.000000 -198.053375 122.633980
vertex 410.000000 -198.260468 122.792892
endloop
endfacet
facet normal 0.000000 -0.608774 -0.793344
outer loop
vertex 410.000000 -198.260468 122.792892
vertex 412.000000 -198.053375 122.633980
vertex 412.000000 -198.260468 122.792892
endloop
endfacet
facet normal 0.000000 -0.793323 -0.608801
outer loop
vertex 410.000000 -198.260468 122.792892
vertex 412.000000 -198.260468 122.792892
vertex 410.000000 -198.419388 123.000000
endloop
endfacet
facet normal 0.000000 -0.793380 -0.608727
outer loop
vertex 410.000000 -198.419388 123.000000
vertex 412.000000 -198.260468 122.792892
vertex 412.000000 -198.419388 123.000000
endloop
endfacet
facet normal 0.000000 -0.923901 -0.382631
outer loop
vertex 410.000000 -198.419388 123.000000
vertex 412.000000 -198.419388 123.000000
vertex 410.000000 -198.519287 123.241180
endloop
endfacet
facet normal 0.000000 -0.923860 -0.382730
outer loop
vertex 410.000000 -198.519287 123.241180
vertex 412.000000 -198.419388 123.000000
vertex 412.000000 -198.519287 123.241180
endloop
endfacet
facet normal 0.000000 -0.991438 -0.130579
outer loop
vertex 410.000000 -198.519287 123.241180
vertex 412.000000 -198.519287 123.241180
vertex 410.000000 -198.553375 123.500000
endloop
endfacet
facet normal 0.000000 -0.991438 -0.130579
outer loop
vertex 410.000000 -198.553375 123.500000
vertex 412.000000 -198.519287 123.241180
vertex 412.000000 -198.553375 123.500000
endloop
endfacet
facet normal 0.000000 0.000000 -1.000000
outer loop
vertex 410.000000 -188.612808 122.500000
vertex 412.000000 -188.612808 122.500000
vertex 410.000000 -194.000000 122.500000
endloop
endfacet
facet normal 0.000000 0.000000 -1.000000
outer loop
vertex 410.000000 -194.000000 122.500000
vertex 412.000000 -188.612808 122.500000
vertex 412.000000 -197.553375 122.500000
endloop
endfacet
facet normal 0.000000 0.000000 -1.000000
outer loop
vertex 410.000000 -194.000000 122.500000
vertex 412.000000 -197.553375 122.500000
vertex 410.000000 -197.553375 122.500000
endloop
endfacet
endsolid ArduinoOnPicaTinny v5.005
