solid ArduinoOnPicaTinny v1.004
facet normal 0.996919 0.000000 -0.078438
outer loop
vertex 364.536926 -9.139481 85.365273
vertex 364.536926 -15.139481 85.365273
vertex 364.500000 -9.139481 84.895966
endloop
endfacet
facet normal 0.996919 0.000000 -0.078441
outer loop
vertex 364.500000 -9.139481 84.895966
vertex 364.536926 -15.139481 85.365273
vertex 364.500000 -15.139481 84.895966
endloop
endfacet
facet normal 0.996919 0.000000 0.078441
outer loop
vertex 364.500000 -9.139481 84.895966
vertex 364.500000 -15.139481 84.895966
vertex 364.536926 -9.139481 84.426666
endloop
endfacet
facet normal 0.996919 0.000000 0.078441
outer loop
vertex 364.536926 -9.139481 84.426666
vertex 364.500000 -15.139481 84.895966
vertex 364.536926 -15.139481 84.426666
endloop
endfacet
facet normal 0.972370 0.000000 0.233444
outer loop
vertex 364.536926 -9.139481 84.426666
vertex 364.536926 -15.139481 84.426666
vertex 364.646820 -9.139481 83.968918
endloop
endfacet
facet normal 0.972372 0.000000 0.233439
outer loop
vertex 364.646820 -9.139481 83.968918
vertex 364.536926 -15.139481 84.426666
vertex 364.646820 -15.139481 83.968918
endloop
endfacet
facet normal 0.923862 0.000000 0.382726
outer loop
vertex 364.646820 -9.139481 83.968918
vertex 364.646820 -15.139481 83.968918
vertex 364.826996 -9.139481 83.533997
endloop
endfacet
facet normal 0.923859 0.000000 0.382733
outer loop
vertex 364.826996 -9.139481 83.533997
vertex 364.646820 -15.139481 83.968918
vertex 364.826996 -15.139481 83.533997
endloop
endfacet
facet normal 0.852639 0.000000 0.522500
outer loop
vertex 364.826996 -9.139481 83.533997
vertex 364.826996 -15.139481 83.533997
vertex 365.072968 -9.139481 83.132614
endloop
endfacet
facet normal 0.852633 0.000000 0.522510
outer loop
vertex 365.072968 -9.139481 83.132614
vertex 364.826996 -15.139481 83.533997
vertex 365.072968 -15.139481 83.132614
endloop
endfacet
facet normal 0.760418 0.000000 0.649434
outer loop
vertex 365.072968 -9.139481 83.132614
vertex 365.072968 -15.139481 83.132614
vertex 365.378693 -9.139481 82.774643
endloop
endfacet
facet normal 0.760418 0.000000 0.649434
outer loop
vertex 365.378693 -9.139481 82.774643
vertex 365.072968 -15.139481 83.132614
vertex 365.378693 -15.139481 82.774643
endloop
endfacet
facet normal 0.649466 0.000000 0.760390
outer loop
vertex 365.378693 -9.139481 82.774643
vertex 365.378693 -15.139481 82.774643
vertex 365.736633 -9.139481 82.468918
endloop
endfacet
facet normal 0.649461 0.000000 0.760395
outer loop
vertex 365.736633 -9.139481 82.468918
vertex 365.378693 -15.139481 82.774643
vertex 365.736633 -15.139482 82.468918
endloop
endfacet
facet normal 0.522491 0.000000 0.852645
outer loop
vertex 365.736633 -9.139481 82.468918
vertex 365.736633 -15.139482 82.468918
vertex 366.138031 -9.139481 82.222946
endloop
endfacet
facet normal 0.522491 0.000000 0.852645
outer loop
vertex 366.138031 -9.139481 82.222946
vertex 365.736633 -15.139482 82.468918
vertex 366.138031 -15.139482 82.222946
endloop
endfacet
facet normal 0.382663 0.000000 0.923888
outer loop
vertex 366.138031 -9.139481 82.222946
vertex 366.138031 -15.139482 82.222946
vertex 366.572968 -9.139481 82.042801
endloop
endfacet
facet normal 0.382663 0.000000 0.923888
outer loop
vertex 366.572968 -9.139481 82.042801
vertex 366.138031 -15.139482 82.222946
vertex 366.572968 -15.139482 82.042801
endloop
endfacet
facet normal 0.233449 0.000000 0.972369
outer loop
vertex 366.572968 -9.139481 82.042801
vertex 366.572968 -15.139482 82.042801
vertex 367.030701 -9.139481 81.932899
endloop
endfacet
facet normal 0.233490 0.000000 0.972359
outer loop
vertex 367.030701 -9.139481 81.932899
vertex 366.572968 -15.139482 82.042801
vertex 367.030701 -15.139482 81.932899
endloop
endfacet
facet normal 0.078463 0.000000 0.996917
outer loop
vertex 367.030701 -9.139481 81.932899
vertex 367.030701 -15.139482 81.932899
vertex 367.500000 -9.139481 81.895966
endloop
endfacet
facet normal 0.078441 0.000000 0.996919
outer loop
vertex 367.500000 -9.139481 81.895966
vertex 367.030701 -15.139482 81.932899
vertex 367.500000 -15.139482 81.895966
endloop
endfacet
facet normal -0.078441 0.000000 0.996919
outer loop
vertex 367.500000 -9.139481 81.895966
vertex 367.500000 -15.139482 81.895966
vertex 367.969299 -9.139481 81.932899
endloop
endfacet
facet normal -0.078463 0.000000 0.996917
outer loop
vertex 367.969299 -9.139481 81.932899
vertex 367.500000 -15.139482 81.895966
vertex 367.969299 -15.139482 81.932899
endloop
endfacet
facet normal -0.233475 0.000000 0.972363
outer loop
vertex 367.969299 -9.139481 81.932899
vertex 367.969299 -15.139482 81.932899
vertex 368.427063 -9.139481 82.042801
endloop
endfacet
facet normal -0.233434 0.000000 0.972373
outer loop
vertex 368.427063 -9.139481 82.042801
vertex 367.969299 -15.139482 81.932899
vertex 368.427063 -15.139482 82.042801
endloop
endfacet
facet normal -0.382686 0.000000 0.923879
outer loop
vertex 368.427063 -9.139481 82.042801
vertex 368.427063 -15.139482 82.042801
vertex 368.861969 -9.139481 82.222946
endloop
endfacet
facet normal -0.382686 0.000000 0.923879
outer loop
vertex 368.861969 -9.139481 82.222946
vertex 368.427063 -15.139482 82.042801
vertex 368.861969 -15.139482 82.222946
endloop
endfacet
facet normal -0.522491 0.000000 0.852645
outer loop
vertex 368.861969 -9.139481 82.222946
vertex 368.861969 -15.139482 82.222946
vertex 369.263367 -9.139481 82.468918
endloop
endfacet
facet normal -0.522491 0.000000 0.852645
outer loop
vertex 369.263367 -9.139481 82.468918
vertex 368.861969 -15.139482 82.222946
vertex 369.263367 -15.139482 82.468918
endloop
endfacet
facet normal -0.649434 0.000000 0.760418
outer loop
vertex 369.263367 -9.139481 82.468918
vertex 369.263367 -15.139482 82.468918
vertex 369.621338 -9.139481 82.774643
endloop
endfacet
facet normal -0.649429 0.000000 0.760422
outer loop
vertex 369.621338 -9.139481 82.774643
vertex 369.263367 -15.139482 82.468918
vertex 369.621338 -15.139481 82.774643
endloop
endfacet
facet normal -0.760418 0.000000 0.649434
outer loop
vertex 369.621338 -9.139481 82.774643
vertex 369.621338 -15.139481 82.774643
vertex 369.927063 -9.139481 83.132614
endloop
endfacet
facet normal -0.760418 0.000000 0.649434
outer loop
vertex 369.927063 -9.139481 83.132614
vertex 369.621338 -15.139481 82.774643
vertex 369.927063 -15.139481 83.132614
endloop
endfacet
facet normal -0.852633 0.000000 0.522510
outer loop
vertex 369.927063 -9.139481 83.132614
vertex 369.927063 -15.139481 83.132614
vertex 370.173035 -9.139481 83.533997
endloop
endfacet
facet normal -0.852639 0.000000 0.522500
outer loop
vertex 370.173035 -9.139481 83.533997
vertex 369.927063 -15.139481 83.132614
vertex 370.173035 -15.139481 83.533997
endloop
endfacet
facet normal -0.923882 0.000000 0.382678
outer loop
vertex 370.173035 -9.139481 83.533997
vertex 370.173035 -15.139481 83.533997
vertex 370.353180 -9.139481 83.968918
endloop
endfacet
facet normal -0.923885 0.000000 0.382671
outer loop
vertex 370.353180 -9.139481 83.968918
vertex 370.173035 -15.139481 83.533997
vertex 370.353180 -15.139481 83.968918
endloop
endfacet
facet normal -0.972372 0.000000 0.233439
outer loop
vertex 370.353180 -9.139481 83.968918
vertex 370.353180 -15.139481 83.968918
vertex 370.463074 -9.139481 84.426666
endloop
endfacet
facet normal -0.972370 0.000000 0.233444
outer loop
vertex 370.463074 -9.139481 84.426666
vertex 370.353180 -15.139481 83.968918
vertex 370.463074 -15.139481 84.426666
endloop
endfacet
facet normal -0.996919 0.000000 0.078441
outer loop
vertex 370.463074 -9.139481 84.426666
vertex 370.463074 -15.139481 84.426666
vertex 370.500000 -9.139481 84.895966
endloop
endfacet
facet normal -0.996919 0.000000 0.078441
outer loop
vertex 370.500000 -9.139481 84.895966
vertex 370.463074 -15.139481 84.426666
vertex 370.500000 -15.139481 84.895966
endloop
endfacet
facet normal -0.996919 0.000000 -0.078441
outer loop
vertex 370.500000 -9.139481 84.895966
vertex 370.500000 -15.139481 84.895966
vertex 370.463074 -9.139481 85.365273
endloop
endfacet
facet normal -0.996919 0.000000 -0.078438
outer loop
vertex 370.463074 -9.139481 85.365273
vertex 370.500000 -15.139481 84.895966
vertex 370.463074 -15.139481 85.365273
endloop
endfacet
facet normal -0.972370 0.000000 -0.233444
outer loop
vertex 370.463074 -9.139481 85.365273
vertex 370.463074 -15.139481 85.365273
vertex 370.353180 -9.139481 85.823021
endloop
endfacet
facet normal -0.972370 0.000000 -0.233444
outer loop
vertex 370.353180 -9.139481 85.823021
vertex 370.463074 -15.139481 85.365273
vertex 370.353180 -15.139481 85.823021
endloop
endfacet
facet normal -0.923888 0.000000 -0.382663
outer loop
vertex 370.353180 -9.139481 85.823021
vertex 370.353180 -15.139481 85.823021
vertex 370.173035 -9.139481 86.257935
endloop
endfacet
facet normal -0.923875 0.000000 -0.382693
outer loop
vertex 370.173035 -9.139481 86.257935
vertex 370.353180 -15.139481 85.823021
vertex 370.173035 -15.139481 86.257942
endloop
endfacet
facet normal -0.852651 0.000000 -0.522481
outer loop
vertex 370.173035 -9.139481 86.257935
vertex 370.173035 -15.139481 86.257942
vertex 369.927063 -9.139481 86.659325
endloop
endfacet
facet normal -0.852627 0.000000 -0.522520
outer loop
vertex 369.927063 -9.139481 86.659325
vertex 370.173035 -15.139481 86.257942
vertex 369.927063 -15.139481 86.659325
endloop
endfacet
facet normal -0.760399 0.000000 -0.649456
outer loop
vertex 369.927063 -9.139481 86.659325
vertex 369.927063 -15.139481 86.659325
vertex 369.621338 -9.139481 87.017288
endloop
endfacet
facet normal -0.760436 0.000000 -0.649413
outer loop
vertex 369.621338 -9.139481 87.017288
vertex 369.927063 -15.139481 86.659325
vertex 369.621338 -15.139481 87.017288
endloop
endfacet
facet normal -0.649409 0.000000 -0.760439
outer loop
vertex 369.621338 -9.139481 87.017288
vertex 369.621338 -15.139481 87.017288
vertex 369.263367 -9.139481 87.323021
endloop
endfacet
facet normal -0.649459 0.000000 -0.760396
outer loop
vertex 369.263367 -9.139481 87.323021
vertex 369.621338 -15.139481 87.017288
vertex 369.263367 -15.139481 87.323021
endloop
endfacet
facet normal -0.522491 0.000000 -0.852645
outer loop
vertex 369.263367 -9.139481 87.323021
vertex 369.263367 -15.139481 87.323021
vertex 368.861969 -9.139481 87.568985
endloop
endfacet
facet normal -0.522491 0.000000 -0.852645
outer loop
vertex 368.861969 -9.139481 87.568985
vertex 369.263367 -15.139481 87.323021
vertex 368.861969 -15.139481 87.568985
endloop
endfacet
facet normal -0.382667 0.000000 -0.923886
outer loop
vertex 368.861969 -9.139481 87.568985
vertex 368.861969 -15.139481 87.568985
vertex 368.427063 -9.139481 87.749138
endloop
endfacet
facet normal -0.382704 0.000000 -0.923871
outer loop
vertex 368.427063 -9.139481 87.749138
vertex 368.861969 -15.139481 87.568985
vertex 368.427063 -15.139481 87.749138
endloop
endfacet
facet normal -0.233455 0.000000 -0.972368
outer loop
vertex 368.427063 -9.139481 87.749138
vertex 368.427063 -15.139481 87.749138
vertex 367.969299 -9.139481 87.859032
endloop
endfacet
facet normal -0.233414 0.000000 -0.972377
outer loop
vertex 367.969299 -9.139481 87.859032
vertex 368.427063 -15.139481 87.749138
vertex 367.969299 -15.139481 87.859032
endloop
endfacet
facet normal -0.078484 0.000000 -0.996915
outer loop
vertex 367.969299 -9.139481 87.859032
vertex 367.969299 -15.139481 87.859032
vertex 367.500000 -9.139481 87.895966
endloop
endfacet
facet normal -0.078441 0.000000 -0.996919
outer loop
vertex 367.500000 -9.139481 87.895966
vertex 367.969299 -15.139481 87.859032
vertex 367.500000 -15.139481 87.895966
endloop
endfacet
facet normal 0.078441 0.000000 -0.996919
outer loop
vertex 367.500000 -9.139481 87.895966
vertex 367.500000 -15.139481 87.895966
vertex 367.030701 -9.139481 87.859032
endloop
endfacet
facet normal 0.078484 0.000000 -0.996915
outer loop
vertex 367.030701 -9.139481 87.859032
vertex 367.500000 -15.139481 87.895966
vertex 367.030701 -15.139481 87.859032
endloop
endfacet
facet normal 0.233429 0.000000 -0.972374
outer loop
vertex 367.030701 -9.139481 87.859032
vertex 367.030701 -15.139481 87.859032
vertex 366.572968 -9.139481 87.749138
endloop
endfacet
facet normal 0.233469 0.000000 -0.972364
outer loop
vertex 366.572968 -9.139481 87.749138
vertex 367.030701 -15.139481 87.859032
vertex 366.572968 -15.139481 87.749138
endloop
endfacet
facet normal 0.382681 0.000000 -0.923880
outer loop
vertex 366.572968 -9.139481 87.749138
vertex 366.572968 -15.139481 87.749138
vertex 366.138031 -9.139481 87.568985
endloop
endfacet
facet normal 0.382644 0.000000 -0.923896
outer loop
vertex 366.138031 -9.139481 87.568985
vertex 366.572968 -15.139481 87.749138
vertex 366.138031 -15.139481 87.568985
endloop
endfacet
facet normal 0.522491 0.000000 -0.852645
outer loop
vertex 366.138031 -9.139481 87.568985
vertex 366.138031 -15.139481 87.568985
vertex 365.736633 -9.139481 87.323021
endloop
endfacet
facet normal 0.522491 0.000000 -0.852645
outer loop
vertex 365.736633 -9.139481 87.323021
vertex 366.138031 -15.139481 87.568985
vertex 365.736633 -15.139481 87.323021
endloop
endfacet
facet normal 0.649491 0.000000 -0.760369
outer loop
vertex 365.736633 -9.139481 87.323021
vertex 365.736633 -15.139481 87.323021
vertex 365.378693 -9.139481 87.017288
endloop
endfacet
facet normal 0.649441 0.000000 -0.760412
outer loop
vertex 365.378693 -9.139481 87.017288
vertex 365.736633 -15.139481 87.323021
vertex 365.378693 -15.139481 87.017288
endloop
endfacet
facet normal 0.760436 0.000000 -0.649413
outer loop
vertex 365.378693 -9.139481 87.017288
vertex 365.378693 -15.139481 87.017288
vertex 365.072968 -9.139481 86.659325
endloop
endfacet
facet normal 0.760400 0.000000 -0.649456
outer loop
vertex 365.072968 -9.139481 86.659325
vertex 365.378693 -15.139481 87.017288
vertex 365.072968 -15.139481 86.659325
endloop
endfacet
facet normal 0.852627 0.000000 -0.522520
outer loop
vertex 365.072968 -9.139481 86.659325
vertex 365.072968 -15.139481 86.659325
vertex 364.826996 -9.139481 86.257935
endloop
endfacet
facet normal 0.852651 -0.000011 -0.522481
outer loop
vertex 364.826996 -9.139481 86.257935
vertex 365.072968 -15.139481 86.659325
vertex 364.826996 -15.139481 86.257942
endloop
endfacet
facet normal 0.923853 0.000000 -0.382749
outer loop
vertex 364.826996 -9.139481 86.257935
vertex 364.826996 -15.139481 86.257942
vertex 364.646820 -9.139481 85.823021
endloop
endfacet
facet normal 0.923865 0.000000 -0.382718
outer loop
vertex 364.646820 -9.139481 85.823021
vertex 364.826996 -15.139481 86.257942
vertex 364.646820 -15.139481 85.823021
endloop
endfacet
facet normal 0.972370 0.000000 -0.233444
outer loop
vertex 364.646820 -9.139481 85.823021
vertex 364.646820 -15.139481 85.823021
vertex 364.536926 -9.139481 85.365273
endloop
endfacet
facet normal 0.972370 0.000000 -0.233444
outer loop
vertex 364.536926 -9.139481 85.365273
vertex 364.646820 -15.139481 85.823021
vertex 364.536926 -15.139481 85.365273
endloop
endfacet
facet normal 0.996919 0.000000 0.078441
outer loop
vertex 364.536926 -21.139481 84.426666
vertex 364.536926 -15.139481 84.426666
vertex 364.500000 -21.139481 84.895966
endloop
endfacet
facet normal 0.996919 0.000000 0.078441
outer loop
vertex 364.500000 -21.139481 84.895966
vertex 364.536926 -15.139481 84.426666
vertex 364.500000 -15.139481 84.895966
endloop
endfacet
facet normal 0.996919 0.000000 -0.078441
outer loop
vertex 364.500000 -21.139481 84.895966
vertex 364.500000 -15.139481 84.895966
vertex 364.536926 -21.139481 85.365273
endloop
endfacet
facet normal 0.996919 0.000000 -0.078438
outer loop
vertex 364.536926 -21.139481 85.365273
vertex 364.500000 -15.139481 84.895966
vertex 364.536926 -15.139481 85.365273
endloop
endfacet
facet normal 0.972370 0.000000 -0.233444
outer loop
vertex 364.536926 -21.139481 85.365273
vertex 364.536926 -15.139481 85.365273
vertex 364.646820 -21.139481 85.823021
endloop
endfacet
facet normal 0.972370 0.000000 -0.233444
outer loop
vertex 364.646820 -21.139481 85.823021
vertex 364.536926 -15.139481 85.365273
vertex 364.646820 -15.139481 85.823021
endloop
endfacet
facet normal 0.923865 0.000000 -0.382718
outer loop
vertex 364.646820 -21.139481 85.823021
vertex 364.646820 -15.139481 85.823021
vertex 364.826996 -21.139481 86.257942
endloop
endfacet
facet normal 0.923859 0.000000 -0.382733
outer loop
vertex 364.826996 -21.139481 86.257942
vertex 364.646820 -15.139481 85.823021
vertex 364.826996 -15.139481 86.257942
endloop
endfacet
facet normal 0.852639 0.000000 -0.522500
outer loop
vertex 364.826996 -21.139481 86.257942
vertex 364.826996 -15.139481 86.257942
vertex 365.072968 -21.139481 86.659325
endloop
endfacet
facet normal 0.852627 0.000000 -0.522520
outer loop
vertex 365.072968 -21.139481 86.659325
vertex 364.826996 -15.139481 86.257942
vertex 365.072968 -15.139481 86.659325
endloop
endfacet
facet normal 0.760399 0.000000 -0.649456
outer loop
vertex 365.072968 -21.139481 86.659325
vertex 365.072968 -15.139481 86.659325
vertex 365.378693 -21.139481 87.017288
endloop
endfacet
facet normal 0.760436 0.000000 -0.649413
outer loop
vertex 365.378693 -21.139481 87.017288
vertex 365.072968 -15.139481 86.659325
vertex 365.378693 -15.139481 87.017288
endloop
endfacet
facet normal 0.649441 0.000000 -0.760412
outer loop
vertex 365.378693 -21.139481 87.017288
vertex 365.378693 -15.139481 87.017288
vertex 365.736633 -21.139481 87.323021
endloop
endfacet
facet normal 0.649491 0.000000 -0.760369
outer loop
vertex 365.736633 -21.139481 87.323021
vertex 365.378693 -15.139481 87.017288
vertex 365.736633 -15.139481 87.323021
endloop
endfacet
facet normal 0.522491 0.000000 -0.852645
outer loop
vertex 365.736633 -21.139481 87.323021
vertex 365.736633 -15.139481 87.323021
vertex 366.138031 -21.139481 87.568985
endloop
endfacet
facet normal 0.522491 0.000000 -0.852645
outer loop
vertex 366.138031 -21.139481 87.568985
vertex 365.736633 -15.139481 87.323021
vertex 366.138031 -15.139481 87.568985
endloop
endfacet
facet normal 0.382644 0.000000 -0.923896
outer loop
vertex 366.138031 -21.139481 87.568985
vertex 366.138031 -15.139481 87.568985
vertex 366.572968 -21.139481 87.749138
endloop
endfacet
facet normal 0.382681 0.000000 -0.923880
outer loop
vertex 366.572968 -21.139481 87.749138
vertex 366.138031 -15.139481 87.568985
vertex 366.572968 -15.139481 87.749138
endloop
endfacet
facet normal 0.233469 0.000000 -0.972364
outer loop
vertex 366.572968 -21.139481 87.749138
vertex 366.572968 -15.139481 87.749138
vertex 367.030701 -21.139481 87.859032
endloop
endfacet
facet normal 0.233429 0.000000 -0.972374
outer loop
vertex 367.030701 -21.139481 87.859032
vertex 366.572968 -15.139481 87.749138
vertex 367.030701 -15.139481 87.859032
endloop
endfacet
facet normal 0.078484 0.000000 -0.996915
outer loop
vertex 367.030701 -21.139481 87.859032
vertex 367.030701 -15.139481 87.859032
vertex 367.500000 -21.139481 87.895966
endloop
endfacet
facet normal 0.078441 0.000000 -0.996919
outer loop
vertex 367.500000 -21.139481 87.895966
vertex 367.030701 -15.139481 87.859032
vertex 367.500000 -15.139481 87.895966
endloop
endfacet
facet normal -0.078441 0.000000 -0.996919
outer loop
vertex 367.500000 -21.139481 87.895966
vertex 367.500000 -15.139481 87.895966
vertex 367.969299 -21.139481 87.859032
endloop
endfacet
facet normal -0.078484 0.000000 -0.996915
outer loop
vertex 367.969299 -21.139481 87.859032
vertex 367.500000 -15.139481 87.895966
vertex 367.969299 -15.139481 87.859032
endloop
endfacet
facet normal -0.233414 0.000000 -0.972377
outer loop
vertex 367.969299 -21.139481 87.859032
vertex 367.969299 -15.139481 87.859032
vertex 368.427063 -21.139481 87.749138
endloop
endfacet
facet normal -0.233455 0.000000 -0.972368
outer loop
vertex 368.427063 -21.139481 87.749138
vertex 367.969299 -15.139481 87.859032
vertex 368.427063 -15.139481 87.749138
endloop
endfacet
facet normal -0.382704 0.000000 -0.923871
outer loop
vertex 368.427063 -21.139481 87.749138
vertex 368.427063 -15.139481 87.749138
vertex 368.861969 -21.139481 87.568985
endloop
endfacet
facet normal -0.382667 0.000000 -0.923886
outer loop
vertex 368.861969 -21.139481 87.568985
vertex 368.427063 -15.139481 87.749138
vertex 368.861969 -15.139481 87.568985
endloop
endfacet
facet normal -0.522491 0.000000 -0.852645
outer loop
vertex 368.861969 -21.139481 87.568985
vertex 368.861969 -15.139481 87.568985
vertex 369.263367 -21.139481 87.323021
endloop
endfacet
facet normal -0.522491 0.000000 -0.852645
outer loop
vertex 369.263367 -21.139481 87.323021
vertex 368.861969 -15.139481 87.568985
vertex 369.263367 -15.139481 87.323021
endloop
endfacet
facet normal -0.649459 0.000000 -0.760396
outer loop
vertex 369.263367 -21.139481 87.323021
vertex 369.263367 -15.139481 87.323021
vertex 369.621338 -21.139481 87.017288
endloop
endfacet
facet normal -0.649409 0.000000 -0.760439
outer loop
vertex 369.621338 -21.139481 87.017288
vertex 369.263367 -15.139481 87.323021
vertex 369.621338 -15.139481 87.017288
endloop
endfacet
facet normal -0.760436 0.000000 -0.649413
outer loop
vertex 369.621338 -21.139481 87.017288
vertex 369.621338 -15.139481 87.017288
vertex 369.927063 -21.139481 86.659325
endloop
endfacet
facet normal -0.760399 0.000000 -0.649456
outer loop
vertex 369.927063 -21.139481 86.659325
vertex 369.621338 -15.139481 87.017288
vertex 369.927063 -15.139481 86.659325
endloop
endfacet
facet normal -0.852627 0.000000 -0.522520
outer loop
vertex 369.927063 -21.139481 86.659325
vertex 369.927063 -15.139481 86.659325
vertex 370.173035 -21.139481 86.257942
endloop
endfacet
facet normal -0.852639 0.000000 -0.522500
outer loop
vertex 370.173035 -21.139481 86.257942
vertex 369.927063 -15.139481 86.659325
vertex 370.173035 -15.139481 86.257942
endloop
endfacet
facet normal -0.923882 0.000000 -0.382678
outer loop
vertex 370.173035 -21.139481 86.257942
vertex 370.173035 -15.139481 86.257942
vertex 370.353180 -21.139481 85.823021
endloop
endfacet
facet normal -0.923888 0.000000 -0.382663
outer loop
vertex 370.353180 -21.139481 85.823021
vertex 370.173035 -15.139481 86.257942
vertex 370.353180 -15.139481 85.823021
endloop
endfacet
facet normal -0.972370 0.000000 -0.233444
outer loop
vertex 370.353180 -21.139481 85.823021
vertex 370.353180 -15.139481 85.823021
vertex 370.463074 -21.139481 85.365273
endloop
endfacet
facet normal -0.972370 0.000000 -0.233444
outer loop
vertex 370.463074 -21.139481 85.365273
vertex 370.353180 -15.139481 85.823021
vertex 370.463074 -15.139481 85.365273
endloop
endfacet
facet normal -0.996919 0.000000 -0.078438
outer loop
vertex 370.463074 -21.139481 85.365273
vertex 370.463074 -15.139481 85.365273
vertex 370.500000 -21.139481 84.895966
endloop
endfacet
facet normal -0.996919 0.000000 -0.078441
outer loop
vertex 370.500000 -21.139481 84.895966
vertex 370.463074 -15.139481 85.365273
vertex 370.500000 -15.139481 84.895966
endloop
endfacet
facet normal -0.996919 0.000000 0.078441
outer loop
vertex 370.500000 -21.139481 84.895966
vertex 370.500000 -15.139481 84.895966
vertex 370.463074 -21.139481 84.426666
endloop
endfacet
facet normal -0.996919 0.000000 0.078441
outer loop
vertex 370.463074 -21.139481 84.426666
vertex 370.500000 -15.139481 84.895966
vertex 370.463074 -15.139481 84.426666
endloop
endfacet
facet normal -0.972370 0.000000 0.233444
outer loop
vertex 370.463074 -21.139481 84.426666
vertex 370.463074 -15.139481 84.426666
vertex 370.353180 -21.139481 83.968918
endloop
endfacet
facet normal -0.972372 0.000000 0.233439
outer loop
vertex 370.353180 -21.139481 83.968918
vertex 370.463074 -15.139481 84.426666
vertex 370.353180 -15.139481 83.968918
endloop
endfacet
facet normal -0.923885 0.000000 0.382671
outer loop
vertex 370.353180 -21.139481 83.968918
vertex 370.353180 -15.139481 83.968918
vertex 370.173035 -21.139481 83.533997
endloop
endfacet
facet normal -0.923882 0.000000 0.382678
outer loop
vertex 370.173035 -21.139481 83.533997
vertex 370.353180 -15.139481 83.968918
vertex 370.173035 -15.139481 83.533997
endloop
endfacet
facet normal -0.852639 0.000000 0.522500
outer loop
vertex 370.173035 -21.139481 83.533997
vertex 370.173035 -15.139481 83.533997
vertex 369.927063 -21.139481 83.132614
endloop
endfacet
facet normal -0.852633 0.000000 0.522510
outer loop
vertex 369.927063 -21.139481 83.132614
vertex 370.173035 -15.139481 83.533997
vertex 369.927063 -15.139481 83.132614
endloop
endfacet
facet normal -0.760418 0.000000 0.649434
outer loop
vertex 369.927063 -21.139481 83.132614
vertex 369.927063 -15.139481 83.132614
vertex 369.621338 -21.139481 82.774651
endloop
endfacet
facet normal -0.760418 0.000000 0.649434
outer loop
vertex 369.621338 -21.139481 82.774651
vertex 369.927063 -15.139481 83.132614
vertex 369.621338 -15.139481 82.774643
endloop
endfacet
facet normal -0.649434 0.000005 0.760418
outer loop
vertex 369.621338 -21.139481 82.774651
vertex 369.621338 -15.139481 82.774643
vertex 369.263367 -21.139481 82.468918
endloop
endfacet
facet normal -0.649440 0.000000 0.760413
outer loop
vertex 369.263367 -21.139481 82.468918
vertex 369.621338 -15.139481 82.774643
vertex 369.263367 -15.139482 82.468918
endloop
endfacet
facet normal -0.522491 0.000000 0.852645
outer loop
vertex 369.263367 -21.139481 82.468918
vertex 369.263367 -15.139482 82.468918
vertex 368.861969 -21.139481 82.222946
endloop
endfacet
facet normal -0.522491 0.000000 0.852645
outer loop
vertex 368.861969 -21.139481 82.222946
vertex 369.263367 -15.139482 82.468918
vertex 368.861969 -15.139482 82.222946
endloop
endfacet
facet normal -0.382686 0.000000 0.923879
outer loop
vertex 368.861969 -21.139481 82.222946
vertex 368.861969 -15.139482 82.222946
vertex 368.427063 -21.139481 82.042801
endloop
endfacet
facet normal -0.382686 0.000000 0.923878
outer loop
vertex 368.427063 -21.139481 82.042801
vertex 368.861969 -15.139482 82.222946
vertex 368.427063 -15.139482 82.042801
endloop
endfacet
facet normal -0.233434 0.000000 0.972373
outer loop
vertex 368.427063 -21.139481 82.042801
vertex 368.427063 -15.139482 82.042801
vertex 367.969299 -21.139481 81.932899
endloop
endfacet
facet normal -0.233455 0.000000 0.972368
outer loop
vertex 367.969299 -21.139481 81.932899
vertex 368.427063 -15.139482 82.042801
vertex 367.969299 -15.139482 81.932899
endloop
endfacet
facet normal -0.078484 0.000000 0.996915
outer loop
vertex 367.969299 -21.139481 81.932899
vertex 367.969299 -15.139482 81.932899
vertex 367.500000 -21.139481 81.895966
endloop
endfacet
facet normal -0.078441 0.000000 0.996919
outer loop
vertex 367.500000 -21.139481 81.895966
vertex 367.969299 -15.139482 81.932899
vertex 367.500000 -15.139482 81.895966
endloop
endfacet
facet normal 0.078441 0.000000 0.996919
outer loop
vertex 367.500000 -21.139481 81.895966
vertex 367.500000 -15.139482 81.895966
vertex 367.030701 -21.139481 81.932899
endloop
endfacet
facet normal 0.078484 0.000000 0.996915
outer loop
vertex 367.030701 -21.139481 81.932899
vertex 367.500000 -15.139482 81.895966
vertex 367.030701 -15.139482 81.932899
endloop
endfacet
facet normal 0.233469 0.000000 0.972364
outer loop
vertex 367.030701 -21.139481 81.932899
vertex 367.030701 -15.139482 81.932899
vertex 366.572968 -21.139481 82.042801
endloop
endfacet
facet normal 0.233449 0.000000 0.972369
outer loop
vertex 366.572968 -21.139481 82.042801
vertex 367.030701 -15.139482 81.932899
vertex 366.572968 -15.139482 82.042801
endloop
endfacet
facet normal 0.382663 0.000000 0.923888
outer loop
vertex 366.572968 -21.139481 82.042801
vertex 366.572968 -15.139482 82.042801
vertex 366.138031 -21.139481 82.222946
endloop
endfacet
facet normal 0.382663 0.000000 0.923888
outer loop
vertex 366.138031 -21.139481 82.222946
vertex 366.572968 -15.139482 82.042801
vertex 366.138031 -15.139482 82.222946
endloop
endfacet
facet normal 0.522491 0.000000 0.852645
outer loop
vertex 366.138031 -21.139481 82.222946
vertex 366.138031 -15.139482 82.222946
vertex 365.736633 -21.139481 82.468918
endloop
endfacet
facet normal 0.522491 0.000000 0.852645
outer loop
vertex 365.736633 -21.139481 82.468918
vertex 366.138031 -15.139482 82.222946
vertex 365.736633 -15.139482 82.468918
endloop
endfacet
facet normal 0.649466 0.000000 0.760390
outer loop
vertex 365.736633 -21.139481 82.468918
vertex 365.736633 -15.139482 82.468918
vertex 365.378693 -21.139481 82.774651
endloop
endfacet
facet normal 0.649472 0.000005 0.760386
outer loop
vertex 365.378693 -21.139481 82.774651
vertex 365.736633 -15.139482 82.468918
vertex 365.378693 -15.139481 82.774643
endloop
endfacet
facet normal 0.760418 0.000000 0.649434
outer loop
vertex 365.378693 -21.139481 82.774651
vertex 365.378693 -15.139481 82.774643
vertex 365.072968 -21.139481 83.132614
endloop
endfacet
facet normal 0.760418 0.000000 0.649434
outer loop
vertex 365.072968 -21.139481 83.132614
vertex 365.378693 -15.139481 82.774643
vertex 365.072968 -15.139481 83.132614
endloop
endfacet
facet normal 0.852633 0.000000 0.522510
outer loop
vertex 365.072968 -21.139481 83.132614
vertex 365.072968 -15.139481 83.132614
vertex 364.826996 -21.139481 83.533997
endloop
endfacet
facet normal 0.852639 0.000000 0.522500
outer loop
vertex 364.826996 -21.139481 83.533997
vertex 365.072968 -15.139481 83.132614
vertex 364.826996 -15.139481 83.533997
endloop
endfacet
facet normal 0.923859 0.000000 0.382733
outer loop
vertex 364.826996 -21.139481 83.533997
vertex 364.826996 -15.139481 83.533997
vertex 364.646820 -21.139481 83.968918
endloop
endfacet
facet normal 0.923862 0.000000 0.382726
outer loop
vertex 364.646820 -21.139481 83.968918
vertex 364.826996 -15.139481 83.533997
vertex 364.646820 -15.139481 83.968918
endloop
endfacet
facet normal 0.972371 0.000000 0.233439
outer loop
vertex 364.646820 -21.139481 83.968918
vertex 364.646820 -15.139481 83.968918
vertex 364.536926 -21.139481 84.426666
endloop
endfacet
facet normal 0.972370 0.000000 0.233444
outer loop
vertex 364.536926 -21.139481 84.426666
vertex 364.646820 -15.139481 83.968918
vertex 364.536926 -15.139481 84.426666
endloop
endfacet
facet normal 0.000000 0.000000 -1.000000
outer loop
vertex 385.000000 -9.139481 80.895966
vertex 385.000000 -21.139481 80.895966
vertex 350.000000 -9.139481 80.895966
endloop
endfacet
facet normal 0.000000 0.000000 -1.000000
outer loop
vertex 350.000000 -9.139481 80.895966
vertex 385.000000 -21.139481 80.895966
vertex 350.000000 -21.139481 80.895966
endloop
endfacet
facet normal 0.000000 0.000000 1.000000
outer loop
vertex 350.000000 -17.700821 88.895966
vertex 385.000000 -17.700821 88.895966
vertex 350.000000 -9.139481 88.895966
endloop
endfacet
facet normal 0.000000 0.000000 1.000000
outer loop
vertex 350.000000 -9.139481 88.895966
vertex 385.000000 -17.700821 88.895966
vertex 385.000000 -9.139481 88.895966
endloop
endfacet
facet normal 0.000000 1.000000 0.000000
outer loop
vertex 385.000000 -17.700821 88.895966
vertex 350.000000 -17.700821 88.895966
vertex 385.000000 -17.700821 100.895966
endloop
endfacet
facet normal 0.000000 1.000000 0.000000
outer loop
vertex 385.000000 -17.700821 100.895966
vertex 350.000000 -17.700821 88.895966
vertex 350.000000 -17.700821 100.895966
endloop
endfacet
facet normal 0.000000 0.000000 -1.000000
outer loop
vertex 385.000000 -9.139480 100.895966
vertex 385.000000 -17.700821 100.895966
vertex 350.000000 -9.139480 100.895966
endloop
endfacet
facet normal 0.000000 0.000000 -1.000000
outer loop
vertex 350.000000 -9.139480 100.895966
vertex 385.000000 -17.700821 100.895966
vertex 350.000000 -17.700821 100.895966
endloop
endfacet
facet normal 1.000000 0.000000 0.000000
outer loop
vertex 385.000000 -9.139481 85.395966
vertex 385.000000 -9.139481 88.895966
vertex 385.000000 -16.639481 85.395966
endloop
endfacet
facet normal 1.000000 0.000000 0.000000
outer loop
vertex 385.000000 -16.639481 85.395966
vertex 385.000000 -9.139481 88.895966
vertex 385.000000 -17.700821 88.895966
endloop
endfacet
facet normal 1.000000 0.000000 0.000000
outer loop
vertex 385.000000 -16.639481 85.395966
vertex 385.000000 -17.700821 88.895966
vertex 385.000000 -16.898300 85.361893
endloop
endfacet
facet normal 1.000000 0.000262 0.000000
outer loop
vertex 385.000000 -16.898300 85.361893
vertex 385.000000 -17.700821 88.895966
vertex 385.000000 -17.139481 85.261993
endloop
endfacet
facet normal 1.000000 -0.000290 0.000000
outer loop
vertex 385.000000 -17.139481 85.261993
vertex 385.000000 -17.700821 88.895966
vertex 385.000000 -17.346588 85.103073
endloop
endfacet
facet normal 1.000000 0.000000 0.000000
outer loop
vertex 385.000000 -17.346588 85.103073
vertex 385.000000 -17.700821 88.895966
vertex 385.000000 -17.505508 84.895966
endloop
endfacet
facet normal 1.000000 0.000000 0.000000
outer loop
vertex 385.000000 -17.505508 84.895966
vertex 385.000000 -17.700821 88.895966
vertex 385.000000 -17.605408 84.654785
endloop
endfacet
facet normal 1.000000 0.000000 0.000000
outer loop
vertex 385.000000 -17.605408 84.654785
vertex 385.000000 -17.700821 88.895966
vertex 385.000000 -21.139481 80.895966
endloop
endfacet
facet normal 1.000000 0.000000 0.000000
outer loop
vertex 385.000000 -17.605408 84.654785
vertex 385.000000 -21.139481 80.895966
vertex 385.000000 -17.639481 84.395966
endloop
endfacet
facet normal 1.000000 -0.000007 0.000000
outer loop
vertex 385.000000 -17.639481 84.395966
vertex 385.000000 -21.139481 80.895966
vertex 385.000000 -17.639481 82.054924
endloop
endfacet
facet normal 1.000000 0.000000 0.000000
outer loop
vertex 385.000000 -17.639481 82.054924
vertex 385.000000 -21.139481 80.895966
vertex 385.000000 -17.605408 81.796104
endloop
endfacet
facet normal 1.000000 0.000000 0.000000
outer loop
vertex 385.000000 -17.605408 81.796104
vertex 385.000000 -21.139481 80.895966
vertex 385.000000 -17.505508 81.554924
endloop
endfacet
facet normal 1.000000 0.000036 0.000000
outer loop
vertex 385.000000 -17.505508 81.554924
vertex 385.000000 -21.139481 80.895966
vertex 385.000000 -17.346588 81.347816
endloop
endfacet
facet normal 1.000000 -0.000022 0.000000
outer loop
vertex 385.000000 -17.346588 81.347816
vertex 385.000000 -21.139481 80.895966
vertex 385.000000 -17.139481 81.188896
endloop
endfacet
facet normal 1.000000 0.000000 0.000000
outer loop
vertex 385.000000 -17.139481 81.188896
vertex 385.000000 -21.139481 80.895966
vertex 385.000000 -16.898300 81.088997
endloop
endfacet
facet normal 1.000000 0.000000 0.000000
outer loop
vertex 385.000000 -16.898300 81.088997
vertex 385.000000 -21.139481 80.895966
vertex 385.000000 -16.639481 81.054924
endloop
endfacet
facet normal 1.000000 0.000000 0.000000
outer loop
vertex 385.000000 -16.639481 81.054924
vertex 385.000000 -21.139481 80.895966
vertex 385.000000 -9.139481 80.895966
endloop
endfacet
facet normal 1.000000 0.000000 0.000000
outer loop
vertex 385.000000 -16.639481 81.054924
vertex 385.000000 -9.139481 80.895966
vertex 385.000000 -9.139481 81.054924
endloop
endfacet
facet normal 1.000000 0.000000 0.000000
outer loop
vertex 385.000000 -21.139481 80.895966
vertex 385.000000 -17.700821 88.895966
vertex 385.000000 -21.139481 102.895966
endloop
endfacet
facet normal 1.000000 0.000000 0.000000
outer loop
vertex 385.000000 -21.139481 102.895966
vertex 385.000000 -17.700821 88.895966
vertex 385.000000 -17.700821 100.895966
endloop
endfacet
facet normal 1.000000 0.000000 0.000000
outer loop
vertex 385.000000 -21.139481 102.895966
vertex 385.000000 -17.700821 100.895966
vertex 385.000000 -9.139480 102.895966
endloop
endfacet
facet normal 1.000000 0.000000 0.000000
outer loop
vertex 385.000000 -9.139480 102.895966
vertex 385.000000 -17.700821 100.895966
vertex 385.000000 -9.139480 100.895966
endloop
endfacet
facet normal 0.000000 1.000000 0.000000
outer loop
vertex 385.000000 -9.139480 100.895966
vertex 350.000000 -9.139480 100.895966
vertex 385.000000 -9.139480 102.895966
endloop
endfacet
facet normal 0.000000 1.000000 0.000000
outer loop
vertex 385.000000 -9.139480 102.895966
vertex 350.000000 -9.139480 100.895966
vertex 350.000000 -9.139480 102.895966
endloop
endfacet
facet normal 0.000000 -1.000000 0.000000
outer loop
vertex 364.536926 -21.139481 84.426666
vertex 364.500000 -21.139481 84.895966
vertex 350.000000 -21.139481 80.895966
endloop
endfacet
facet normal 0.000000 -1.000000 -0.000002
outer loop
vertex 350.000000 -21.139481 80.895966
vertex 364.500000 -21.139481 84.895966
vertex 364.536926 -21.139481 85.365273
endloop
endfacet
facet normal 0.000000 -1.000000 0.000003
outer loop
vertex 350.000000 -21.139481 80.895966
vertex 364.536926 -21.139481 85.365273
vertex 364.646820 -21.139481 85.823021
endloop
endfacet
facet normal 0.000000 -1.000000 -0.000011
outer loop
vertex 364.646820 -21.139481 85.823021
vertex 364.826996 -21.139481 86.257942
vertex 350.000000 -21.139481 80.895966
endloop
endfacet
facet normal 0.000000 -1.000000 0.000003
outer loop
vertex 350.000000 -21.139481 80.895966
vertex 364.826996 -21.139481 86.257942
vertex 365.072968 -21.139481 86.659325
endloop
endfacet
facet normal 0.000000 -1.000000 0.000000
outer loop
vertex 350.000000 -21.139481 80.895966
vertex 365.072968 -21.139481 86.659325
vertex 350.000000 -21.139481 102.895966
endloop
endfacet
facet normal 0.000000 -1.000000 0.000002
outer loop
vertex 350.000000 -21.139481 102.895966
vertex 365.072968 -21.139481 86.659325
vertex 365.378693 -21.139481 87.017288
endloop
endfacet
facet normal 0.000000 -1.000000 -0.000000
outer loop
vertex 350.000000 -21.139481 102.895966
vertex 365.378693 -21.139481 87.017288
vertex 365.736633 -21.139481 87.323021
endloop
endfacet
facet normal 0.000000 -1.000000 0.000000
outer loop
vertex 365.736633 -21.139481 87.323021
vertex 366.138031 -21.139481 87.568985
vertex 350.000000 -21.139481 102.895966
endloop
endfacet
facet normal 0.000000 -1.000000 -0.000001
outer loop
vertex 350.000000 -21.139481 102.895966
vertex 366.138031 -21.139481 87.568985
vertex 366.572968 -21.139481 87.749138
endloop
endfacet
facet normal 0.000000 -1.000000 0.000000
outer loop
vertex 350.000000 -21.139481 102.895966
vertex 366.572968 -21.139481 87.749138
vertex 367.030701 -21.139481 87.859032
endloop
endfacet
facet normal 0.000000 -1.000000 0.000000
outer loop
vertex 367.030701 -21.139481 87.859032
vertex 367.500000 -21.139481 87.895966
vertex 350.000000 -21.139481 102.895966
endloop
endfacet
facet normal 0.000000 -1.000000 0.000000
outer loop
vertex 350.000000 -21.139481 102.895966
vertex 367.500000 -21.139481 87.895966
vertex 385.000000 -21.139481 102.895966
endloop
endfacet
facet normal 0.000000 -1.000000 -0.000000
outer loop
vertex 385.000000 -21.139481 102.895966
vertex 367.500000 -21.139481 87.895966
vertex 367.969299 -21.139481 87.859032
endloop
endfacet
facet normal 0.000000 -1.000000 0.000002
outer loop
vertex 385.000000 -21.139481 102.895966
vertex 367.969299 -21.139481 87.859032
vertex 368.427063 -21.139481 87.749138
endloop
endfacet
facet normal 0.000000 -1.000000 0.000000
outer loop
vertex 368.427063 -21.139481 87.749138
vertex 368.861969 -21.139481 87.568985
vertex 385.000000 -21.139481 102.895966
endloop
endfacet
facet normal 0.000000 -1.000000 -0.000002
outer loop
vertex 385.000000 -21.139481 102.895966
vertex 368.861969 -21.139481 87.568985
vertex 369.263367 -21.139481 87.323021
endloop
endfacet
facet normal 0.000000 -1.000000 0.000001
outer loop
vertex 385.000000 -21.139481 102.895966
vertex 369.263367 -21.139481 87.323021
vertex 369.621338 -21.139481 87.017288
endloop
endfacet
facet normal 0.000000 -1.000000 0.000000
outer loop
vertex 369.621338 -21.139481 87.017288
vertex 369.927063 -21.139481 86.659325
vertex 385.000000 -21.139481 102.895966
endloop
endfacet
facet normal 0.000000 -1.000000 0.000000
outer loop
vertex 385.000000 -21.139481 102.895966
vertex 369.927063 -21.139481 86.659325
vertex 385.000000 -21.139481 80.895966
endloop
endfacet
facet normal 0.000000 -1.000000 0.000003
outer loop
vertex 385.000000 -21.139481 80.895966
vertex 369.927063 -21.139481 86.659325
vertex 370.173035 -21.139481 86.257942
endloop
endfacet
facet normal 0.000000 -1.000000 -0.000007
outer loop
vertex 385.000000 -21.139481 80.895966
vertex 370.173035 -21.139481 86.257942
vertex 370.353180 -21.139481 85.823021
endloop
endfacet
facet normal 0.000000 -1.000000 0.000000
outer loop
vertex 370.353180 -21.139481 85.823021
vertex 370.463074 -21.139481 85.365273
vertex 385.000000 -21.139481 80.895966
endloop
endfacet
facet normal 0.000000 -1.000000 -0.000002
outer loop
vertex 385.000000 -21.139481 80.895966
vertex 370.463074 -21.139481 85.365273
vertex 370.500000 -21.139481 84.895966
endloop
endfacet
facet normal 0.000000 -1.000000 0.000002
outer loop
vertex 385.000000 -21.139481 80.895966
vertex 370.500000 -21.139481 84.895966
vertex 370.463074 -21.139481 84.426666
endloop
endfacet
facet normal 0.000000 -1.000000 0.000000
outer loop
vertex 370.463074 -21.139481 84.426666
vertex 370.353180 -21.139481 83.968918
vertex 385.000000 -21.139481 80.895966
endloop
endfacet
facet normal 0.000000 -1.000000 0.000006
outer loop
vertex 385.000000 -21.139481 80.895966
vertex 370.353180 -21.139481 83.968918
vertex 370.173035 -21.139481 83.533997
endloop
endfacet
facet normal 0.000000 -1.000000 -0.000002
outer loop
vertex 385.000000 -21.139481 80.895966
vertex 370.173035 -21.139481 83.533997
vertex 369.927063 -21.139481 83.132614
endloop
endfacet
facet normal 0.000000 -1.000000 0.000000
outer loop
vertex 369.927063 -21.139481 83.132614
vertex 369.621338 -21.139481 82.774651
vertex 385.000000 -21.139481 80.895966
endloop
endfacet
facet normal 0.000000 -1.000000 -0.000001
outer loop
vertex 385.000000 -21.139481 80.895966
vertex 369.621338 -21.139481 82.774651
vertex 369.263367 -21.139481 82.468918
endloop
endfacet
facet normal 0.000000 -1.000000 0.000006
outer loop
vertex 385.000000 -21.139481 80.895966
vertex 369.263367 -21.139481 82.468918
vertex 368.861969 -21.139481 82.222946
endloop
endfacet
facet normal 0.000000 -1.000000 0.000000
outer loop
vertex 368.861969 -21.139481 82.222946
vertex 368.427063 -21.139481 82.042801
vertex 385.000000 -21.139481 80.895966
endloop
endfacet
facet normal 0.000000 -1.000000 -0.000006
outer loop
vertex 385.000000 -21.139481 80.895966
vertex 368.427063 -21.139481 82.042801
vertex 367.969299 -21.139481 81.932899
endloop
endfacet
facet normal 0.000000 -1.000000 0.000003
outer loop
vertex 385.000000 -21.139481 80.895966
vertex 367.969299 -21.139481 81.932899
vertex 367.500000 -21.139481 81.895966
endloop
endfacet
facet normal 0.000000 -1.000000 0.000000
outer loop
vertex 385.000000 -21.139481 80.895966
vertex 367.500000 -21.139481 81.895966
vertex 350.000000 -21.139481 80.895966
endloop
endfacet
facet normal 0.000000 -1.000000 0.000003
outer loop
vertex 350.000000 -21.139481 80.895966
vertex 367.500000 -21.139481 81.895966
vertex 367.030701 -21.139481 81.932899
endloop
endfacet
facet normal 0.000000 -1.000000 -0.000002
outer loop
vertex 350.000000 -21.139481 80.895966
vertex 367.030701 -21.139481 81.932899
vertex 366.572968 -21.139481 82.042801
endloop
endfacet
facet normal 0.000000 -1.000000 0.000000
outer loop
vertex 366.572968 -21.139481 82.042801
vertex 366.138031 -21.139481 82.222946
vertex 350.000000 -21.139481 80.895966
endloop
endfacet
facet normal 0.000000 -1.000000 0.000006
outer loop
vertex 350.000000 -21.139481 80.895966
vertex 366.138031 -21.139481 82.222946
vertex 365.736633 -21.139481 82.468918
endloop
endfacet
facet normal 0.000000 -1.000000 0.000000
outer loop
vertex 350.000000 -21.139481 80.895966
vertex 365.736633 -21.139481 82.468918
vertex 365.378693 -21.139481 82.774651
endloop
endfacet
facet normal 0.000000 -1.000000 0.000000
outer loop
vertex 365.378693 -21.139481 82.774651
vertex 365.072968 -21.139481 83.132614
vertex 350.000000 -21.139481 80.895966
endloop
endfacet
facet normal 0.000000 -1.000000 -0.000002
outer loop
vertex 350.000000 -21.139481 80.895966
vertex 365.072968 -21.139481 83.132614
vertex 364.826996 -21.139481 83.533997
endloop
endfacet
facet normal 0.000000 -1.000000 0.000004
outer loop
vertex 350.000000 -21.139481 80.895966
vertex 364.826996 -21.139481 83.533997
vertex 364.646820 -21.139481 83.968918
endloop
endfacet
facet normal 0.000000 -1.000000 0.000000
outer loop
vertex 364.646820 -21.139481 83.968918
vertex 364.536926 -21.139481 84.426666
vertex 350.000000 -21.139481 80.895966
endloop
endfacet
facet normal -1.000000 0.000000 0.000000
outer loop
vertex 350.000000 -9.139481 81.054924
vertex 350.000000 -9.139481 80.895966
vertex 350.000000 -16.639481 81.054924
endloop
endfacet
facet normal -1.000000 0.000000 0.000000
outer loop
vertex 350.000000 -16.639481 81.054924
vertex 350.000000 -9.139481 80.895966
vertex 350.000000 -21.139481 80.895966
endloop
endfacet
facet normal -1.000000 0.000000 0.000000
outer loop
vertex 350.000000 -16.639481 81.054924
vertex 350.000000 -21.139481 80.895966
vertex 350.000000 -16.898300 81.088997
endloop
endfacet
facet normal -1.000000 0.000000 0.000000
outer loop
vertex 350.000000 -16.898300 81.088997
vertex 350.000000 -21.139481 80.895966
vertex 350.000000 -17.139481 81.188896
endloop
endfacet
facet normal -1.000000 0.000000 0.000000
outer loop
vertex 350.000000 -17.139481 81.188896
vertex 350.000000 -21.139481 80.895966
vertex 350.000000 -17.346588 81.347816
endloop
endfacet
facet normal -1.000000 0.000000 0.000000
outer loop
vertex 350.000000 -17.346588 81.347816
vertex 350.000000 -21.139481 80.895966
vertex 350.000000 -17.505508 81.554924
endloop
endfacet
facet normal -1.000000 0.000000 0.000000
outer loop
vertex 350.000000 -17.505508 81.554924
vertex 350.000000 -21.139481 80.895966
vertex 350.000000 -17.605408 81.796104
endloop
endfacet
facet normal -1.000000 0.000000 0.000000
outer loop
vertex 350.000000 -17.605408 81.796104
vertex 350.000000 -21.139481 80.895966
vertex 350.000000 -17.639481 82.054924
endloop
endfacet
facet normal -1.000000 0.000000 0.000000
outer loop
vertex 350.000000 -17.639481 82.054924
vertex 350.000000 -21.139481 80.895966
vertex 350.000000 -17.639481 84.395966
endloop
endfacet
facet normal -1.000000 0.000000 0.000000
outer loop
vertex 350.000000 -17.639481 84.395966
vertex 350.000000 -21.139481 80.895966
vertex 350.000000 -17.605408 84.654785
endloop
endfacet
facet normal -1.000000 0.000000 0.000000
outer loop
vertex 350.000000 -17.605408 84.654785
vertex 350.000000 -21.139481 80.895966
vertex 350.000000 -17.700821 88.895966
endloop
endfacet
facet normal -1.000000 0.000000 0.000000
outer loop
vertex 350.000000 -17.605408 84.654785
vertex 350.000000 -17.700821 88.895966
vertex 350.000000 -17.505508 84.895966
endloop
endfacet
facet normal -1.000000 0.000000 0.000000
outer loop
vertex 350.000000 -17.505508 84.895966
vertex 350.000000 -17.700821 88.895966
vertex 350.000000 -17.346588 85.103073
endloop
endfacet
facet normal -1.000000 0.000000 0.000000
outer loop
vertex 350.000000 -17.346588 85.103073
vertex 350.000000 -17.700821 88.895966
vertex 350.000000 -17.139481 85.261993
endloop
endfacet
facet normal -1.000000 0.000000 0.000000
outer loop
vertex 350.000000 -17.139481 85.261993
vertex 350.000000 -17.700821 88.895966
vertex 350.000000 -16.898300 85.361893
endloop
endfacet
facet normal -1.000000 0.000000 0.000000
outer loop
vertex 350.000000 -16.898300 85.361893
vertex 350.000000 -17.700821 88.895966
vertex 350.000000 -16.639481 85.395966
endloop
endfacet
facet normal -1.000000 0.000000 0.000000
outer loop
vertex 350.000000 -16.639481 85.395966
vertex 350.000000 -17.700821 88.895966
vertex 350.000000 -9.139481 88.895966
endloop
endfacet
facet normal -1.000000 0.000000 0.000000
outer loop
vertex 350.000000 -16.639481 85.395966
vertex 350.000000 -9.139481 88.895966
vertex 350.000000 -9.139481 85.395966
endloop
endfacet
facet normal -1.000000 0.000000 0.000000
outer loop
vertex 350.000000 -21.139481 80.895966
vertex 350.000000 -21.139481 102.895966
vertex 350.000000 -17.700821 88.895966
endloop
endfacet
facet normal -1.000000 0.000000 0.000000
outer loop
vertex 350.000000 -17.700821 88.895966
vertex 350.000000 -21.139481 102.895966
vertex 350.000000 -17.700821 100.895966
endloop
endfacet
facet normal -1.000000 0.000000 0.000000
outer loop
vertex 350.000000 -17.700821 100.895966
vertex 350.000000 -21.139481 102.895966
vertex 350.000000 -9.139480 102.895966
endloop
endfacet
facet normal -1.000000 0.000000 0.000000
outer loop
vertex 350.000000 -17.700821 100.895966
vertex 350.000000 -9.139480 102.895966
vertex 350.000000 -9.139480 100.895966
endloop
endfacet
facet normal 0.000000 0.000000 1.000000
outer loop
vertex 385.000000 -9.139480 102.895966
vertex 350.000000 -9.139480 102.895966
vertex 385.000000 -21.139481 102.895966
endloop
endfacet
facet normal 0.000000 0.000000 1.000000
outer loop
vertex 385.000000 -21.139481 102.895966
vertex 350.000000 -9.139480 102.895966
vertex 350.000000 -21.139481 102.895966
endloop
endfacet
facet normal 0.000000 0.000000 -1.000000
outer loop
vertex 346.000000 -19.139481 81.054924
vertex 346.000000 -9.139481 81.054924
vertex 348.000000 -16.639481 81.054924
endloop
endfacet
facet normal 0.000000 0.000000 -1.000000
outer loop
vertex 348.000000 -16.639481 81.054924
vertex 346.000000 -9.139481 81.054924
vertex 350.000000 -9.139481 81.054924
endloop
endfacet
facet normal 0.000000 0.000000 -1.000000
outer loop
vertex 348.000000 -16.639481 81.054924
vertex 350.000000 -9.139481 81.054924
vertex 350.000000 -16.639481 81.054924
endloop
endfacet
facet normal 0.000000 0.000000 -1.000000
outer loop
vertex 348.000000 -16.639481 81.054924
vertex 348.000000 -19.139481 81.054924
vertex 346.000000 -19.139481 81.054924
endloop
endfacet
facet normal -1.000000 0.000000 0.000000
outer loop
vertex 346.000000 -9.139481 81.054924
vertex 346.000000 -19.139481 81.054924
vertex 346.000000 -9.139481 86.895966
endloop
endfacet
facet normal -1.000000 0.000000 0.000000
outer loop
vertex 346.000000 -9.139481 86.895966
vertex 346.000000 -19.139481 81.054924
vertex 346.000000 -19.139481 86.895966
endloop
endfacet
facet normal 0.000000 0.000000 1.000000
outer loop
vertex 346.000000 -9.139481 86.895966
vertex 346.000000 -19.139481 86.895966
vertex 348.000000 -9.139481 86.895966
endloop
endfacet
facet normal 0.000000 0.000000 1.000000
outer loop
vertex 348.000000 -9.139481 86.895966
vertex 346.000000 -19.139481 86.895966
vertex 348.000000 -19.139481 86.895966
endloop
endfacet
facet normal 0.000000 -1.000000 0.000000
outer loop
vertex 348.000000 -19.139481 81.054924
vertex 348.000000 -19.139481 86.895966
vertex 346.000000 -19.139481 81.054924
endloop
endfacet
facet normal 0.000000 -1.000000 0.000000
outer loop
vertex 346.000000 -19.139481 81.054924
vertex 348.000000 -19.139481 86.895966
vertex 346.000000 -19.139481 86.895966
endloop
endfacet
facet normal 1.000000 0.000000 0.000000
outer loop
vertex 348.000000 -9.139481 85.395966
vertex 348.000000 -9.139481 86.895966
vertex 348.000000 -16.639481 85.395966
endloop
endfacet
facet normal 1.000000 0.000000 0.000000
outer loop
vertex 348.000000 -16.639481 85.395966
vertex 348.000000 -9.139481 86.895966
vertex 348.000000 -19.139481 86.895966
endloop
endfacet
facet normal 1.000000 0.000000 0.000000
outer loop
vertex 348.000000 -16.639481 85.395966
vertex 348.000000 -19.139481 86.895966
vertex 348.000000 -16.898300 85.361893
endloop
endfacet
facet normal 1.000000 0.000000 0.000000
outer loop
vertex 348.000000 -16.898300 85.361893
vertex 348.000000 -19.139481 86.895966
vertex 348.000000 -17.139481 85.261993
endloop
endfacet
facet normal 1.000000 0.000000 0.000000
outer loop
vertex 348.000000 -17.139481 85.261993
vertex 348.000000 -19.139481 86.895966
vertex 348.000000 -17.346588 85.103073
endloop
endfacet
facet normal 1.000000 0.000000 0.000000
outer loop
vertex 348.000000 -17.346588 85.103073
vertex 348.000000 -19.139481 86.895966
vertex 348.000000 -17.505508 84.895966
endloop
endfacet
facet normal 1.000000 0.000000 0.000000
outer loop
vertex 348.000000 -17.505508 84.895966
vertex 348.000000 -19.139481 86.895966
vertex 348.000000 -17.605408 84.654785
endloop
endfacet
facet normal 1.000000 0.000000 0.000000
outer loop
vertex 348.000000 -17.605408 84.654785
vertex 348.000000 -19.139481 86.895966
vertex 348.000000 -17.639481 84.395966
endloop
endfacet
facet normal 1.000000 0.000000 0.000000
outer loop
vertex 348.000000 -17.639481 84.395966
vertex 348.000000 -19.139481 86.895966
vertex 348.000000 -19.139481 81.054924
endloop
endfacet
facet normal 1.000000 0.000000 0.000000
outer loop
vertex 348.000000 -17.639481 84.395966
vertex 348.000000 -19.139481 81.054924
vertex 348.000000 -17.639481 82.054924
endloop
endfacet
facet normal 1.000000 0.000000 0.000000
outer loop
vertex 348.000000 -17.639481 82.054924
vertex 348.000000 -19.139481 81.054924
vertex 348.000000 -17.605408 81.796104
endloop
endfacet
facet normal 1.000000 0.000000 0.000000
outer loop
vertex 348.000000 -17.605408 81.796104
vertex 348.000000 -19.139481 81.054924
vertex 348.000000 -17.505508 81.554924
endloop
endfacet
facet normal 1.000000 0.000000 0.000000
outer loop
vertex 348.000000 -17.505508 81.554924
vertex 348.000000 -19.139481 81.054924
vertex 348.000000 -17.346588 81.347816
endloop
endfacet
facet normal 1.000000 0.000000 0.000000
outer loop
vertex 348.000000 -17.346588 81.347816
vertex 348.000000 -19.139481 81.054924
vertex 348.000000 -17.139481 81.188896
endloop
endfacet
facet normal 1.000000 0.000000 0.000000
outer loop
vertex 348.000000 -17.139481 81.188896
vertex 348.000000 -19.139481 81.054924
vertex 348.000000 -16.898300 81.088997
endloop
endfacet
facet normal 1.000000 0.000000 0.000000
outer loop
vertex 348.000000 -16.898300 81.088997
vertex 348.000000 -19.139481 81.054924
vertex 348.000000 -16.639481 81.054924
endloop
endfacet
facet normal 0.000000 -0.130521 0.991446
outer loop
vertex 350.000000 -16.639481 85.395966
vertex 348.000000 -16.639481 85.395966
vertex 350.000000 -16.898300 85.361893
endloop
endfacet
facet normal 0.000000 -0.130521 0.991446
outer loop
vertex 350.000000 -16.898300 85.361893
vertex 348.000000 -16.639481 85.395966
vertex 348.000000 -16.898300 85.361893
endloop
endfacet
facet normal 0.000000 -0.382680 0.923881
outer loop
vertex 350.000000 -16.898300 85.361893
vertex 348.000000 -16.898300 85.361893
vertex 350.000000 -17.139481 85.261993
endloop
endfacet
facet normal 0.000000 -0.382680 0.923881
outer loop
vertex 350.000000 -17.139481 85.261993
vertex 348.000000 -16.898300 85.361893
vertex 348.000000 -17.139481 85.261993
endloop
endfacet
facet normal 0.000000 -0.608764 0.793351
outer loop
vertex 350.000000 -17.139481 85.261993
vertex 348.000000 -17.139481 85.261993
vertex 350.000000 -17.346588 85.103073
endloop
endfacet
facet normal 0.000000 -0.608764 0.793351
outer loop
vertex 350.000000 -17.346588 85.103073
vertex 348.000000 -17.139481 85.261993
vertex 348.000000 -17.346588 85.103073
endloop
endfacet
facet normal 0.000000 -0.793351 0.608764
outer loop
vertex 350.000000 -17.346588 85.103073
vertex 348.000000 -17.346588 85.103073
vertex 350.000000 -17.505508 84.895966
endloop
endfacet
facet normal 0.000000 -0.793351 0.608764
outer loop
vertex 350.000000 -17.505508 84.895966
vertex 348.000000 -17.346588 85.103073
vertex 348.000000 -17.505508 84.895966
endloop
endfacet
facet normal 0.000000 -0.923881 0.382680
outer loop
vertex 350.000000 -17.505508 84.895966
vertex 348.000000 -17.505508 84.895966
vertex 350.000000 -17.605408 84.654785
endloop
endfacet
facet normal 0.000000 -0.923881 0.382680
outer loop
vertex 350.000000 -17.605408 84.654785
vertex 348.000000 -17.505508 84.895966
vertex 348.000000 -17.605408 84.654785
endloop
endfacet
facet normal 0.000000 -0.991446 0.130521
outer loop
vertex 350.000000 -17.605408 84.654785
vertex 348.000000 -17.605408 84.654785
vertex 350.000000 -17.639481 84.395966
endloop
endfacet
facet normal 0.000000 -0.991446 0.130521
outer loop
vertex 350.000000 -17.639481 84.395966
vertex 348.000000 -17.605408 84.654785
vertex 348.000000 -17.639481 84.395966
endloop
endfacet
facet normal 0.000000 0.000000 1.000000
outer loop
vertex 350.000000 -9.139481 85.395966
vertex 348.000000 -9.139481 85.395966
vertex 350.000000 -16.639481 85.395966
endloop
endfacet
facet normal 0.000000 0.000000 1.000000
outer loop
vertex 350.000000 -16.639481 85.395966
vertex 348.000000 -9.139481 85.395966
vertex 348.000000 -16.639481 85.395966
endloop
endfacet
facet normal 0.000000 -0.991446 -0.130521
outer loop
vertex 350.000000 -17.639481 82.054924
vertex 348.000000 -17.639481 82.054924
vertex 350.000000 -17.605408 81.796104
endloop
endfacet
facet normal 0.000000 -0.991446 -0.130521
outer loop
vertex 350.000000 -17.605408 81.796104
vertex 348.000000 -17.639481 82.054924
vertex 348.000000 -17.605408 81.796104
endloop
endfacet
facet normal 0.000000 -0.923881 -0.382680
outer loop
vertex 350.000000 -17.605408 81.796104
vertex 348.000000 -17.605408 81.796104
vertex 350.000000 -17.505508 81.554924
endloop
endfacet
facet normal 0.000000 -0.923881 -0.382680
outer loop
vertex 350.000000 -17.505508 81.554924
vertex 348.000000 -17.605408 81.796104
vertex 348.000000 -17.505508 81.554924
endloop
endfacet
facet normal 0.000000 -0.793351 -0.608764
outer loop
vertex 350.000000 -17.505508 81.554924
vertex 348.000000 -17.505508 81.554924
vertex 350.000000 -17.346588 81.347816
endloop
endfacet
facet normal 0.000000 -0.793351 -0.608764
outer loop
vertex 350.000000 -17.346588 81.347816
vertex 348.000000 -17.505508 81.554924
vertex 348.000000 -17.346588 81.347816
endloop
endfacet
facet normal 0.000000 -0.608764 -0.793351
outer loop
vertex 350.000000 -17.346588 81.347816
vertex 348.000000 -17.346588 81.347816
vertex 350.000000 -17.139481 81.188896
endloop
endfacet
facet normal 0.000000 -0.608764 -0.793351
outer loop
vertex 350.000000 -17.139481 81.188896
vertex 348.000000 -17.346588 81.347816
vertex 348.000000 -17.139481 81.188896
endloop
endfacet
facet normal 0.000000 -0.382680 -0.923881
outer loop
vertex 350.000000 -17.139481 81.188896
vertex 348.000000 -17.139481 81.188896
vertex 350.000000 -16.898300 81.088997
endloop
endfacet
facet normal 0.000000 -0.382680 -0.923881
outer loop
vertex 350.000000 -16.898300 81.088997
vertex 348.000000 -17.139481 81.188896
vertex 348.000000 -16.898300 81.088997
endloop
endfacet
facet normal 0.000000 -0.130521 -0.991446
outer loop
vertex 350.000000 -16.898300 81.088997
vertex 348.000000 -16.898300 81.088997
vertex 350.000000 -16.639481 81.054924
endloop
endfacet
facet normal 0.000000 -0.130521 -0.991446
outer loop
vertex 350.000000 -16.639481 81.054924
vertex 348.000000 -16.898300 81.088997
vertex 348.000000 -16.639481 81.054924
endloop
endfacet
facet normal 0.000000 -1.000000 0.000000
outer loop
vertex 348.000000 -17.639481 84.395966
vertex 348.000000 -17.639481 82.054924
vertex 350.000000 -17.639481 84.395966
endloop
endfacet
facet normal 0.000000 -1.000000 0.000000
outer loop
vertex 350.000000 -17.639481 84.395966
vertex 348.000000 -17.639481 82.054924
vertex 350.000000 -17.639481 82.054924
endloop
endfacet
facet normal 0.000000 1.000000 0.000000
outer loop
vertex 364.536926 -9.139481 85.365273
vertex 364.500000 -9.139481 84.895966
vertex 350.000000 -9.139481 85.395966
endloop
endfacet
facet normal 0.000000 1.000000 -0.000002
outer loop
vertex 350.000000 -9.139481 85.395966
vertex 364.500000 -9.139481 84.895966
vertex 364.536926 -9.139481 84.426666
endloop
endfacet
facet normal 0.000000 1.000000 -0.000002
outer loop
vertex 350.000000 -9.139481 85.395966
vertex 364.536926 -9.139481 84.426666
vertex 364.646820 -9.139481 83.968918
endloop
endfacet
facet normal 0.000000 1.000000 0.000000
outer loop
vertex 364.646820 -9.139481 83.968918
vertex 364.826996 -9.139481 83.533997
vertex 350.000000 -9.139481 85.395966
endloop
endfacet
facet normal 0.000000 1.000000 0.000000
outer loop
vertex 350.000000 -9.139481 85.395966
vertex 364.826996 -9.139481 83.533997
vertex 350.000000 -9.139481 81.054924
endloop
endfacet
facet normal 0.000000 1.000000 0.000000
outer loop
vertex 350.000000 -9.139481 85.395966
vertex 350.000000 -9.139481 81.054924
vertex 348.000000 -9.139481 85.395966
endloop
endfacet
facet normal 0.000000 1.000000 0.000000
outer loop
vertex 348.000000 -9.139481 85.395966
vertex 350.000000 -9.139481 81.054924
vertex 346.000000 -9.139481 81.054924
endloop
endfacet
facet normal 0.000000 1.000000 0.000000
outer loop
vertex 348.000000 -9.139481 85.395966
vertex 346.000000 -9.139481 81.054924
vertex 346.000000 -9.139481 86.895966
endloop
endfacet
facet normal 0.000000 1.000000 0.000000
outer loop
vertex 364.826996 -9.139481 83.533997
vertex 365.072968 -9.139481 83.132614
vertex 350.000000 -9.139481 81.054924
endloop
endfacet
facet normal 0.000000 1.000000 -0.000002
outer loop
vertex 350.000000 -9.139481 81.054924
vertex 365.072968 -9.139481 83.132614
vertex 365.378693 -9.139481 82.774643
endloop
endfacet
facet normal 0.000000 1.000000 -0.000000
outer loop
vertex 350.000000 -9.139481 81.054924
vertex 365.378693 -9.139481 82.774643
vertex 365.736633 -9.139481 82.468918
endloop
endfacet
facet normal 0.000000 1.000000 0.000000
outer loop
vertex 365.736633 -9.139481 82.468918
vertex 366.138031 -9.139481 82.222946
vertex 350.000000 -9.139481 81.054924
endloop
endfacet
facet normal 0.000000 1.000000 0.000007
outer loop
vertex 350.000000 -9.139481 81.054924
vertex 366.138031 -9.139481 82.222946
vertex 366.572968 -9.139481 82.042801
endloop
endfacet
facet normal 0.000000 1.000000 0.000000
outer loop
vertex 350.000000 -9.139481 81.054924
vertex 366.572968 -9.139481 82.042801
vertex 350.000000 -9.139481 80.895966
endloop
endfacet
facet normal 0.000000 1.000000 -0.000011
outer loop
vertex 350.000000 -9.139481 80.895966
vertex 366.572968 -9.139481 82.042801
vertex 367.030701 -9.139481 81.932899
endloop
endfacet
facet normal 0.000000 1.000000 -0.000003
outer loop
vertex 350.000000 -9.139481 80.895966
vertex 367.030701 -9.139481 81.932899
vertex 367.500000 -9.139481 81.895966
endloop
endfacet
facet normal 0.000000 1.000000 0.000000
outer loop
vertex 350.000000 -9.139481 80.895966
vertex 367.500000 -9.139481 81.895966
vertex 385.000000 -9.139481 80.895966
endloop
endfacet
facet normal 0.000000 1.000000 -0.000003
outer loop
vertex 385.000000 -9.139481 80.895966
vertex 367.500000 -9.139481 81.895966
vertex 367.969299 -9.139481 81.932899
endloop
endfacet
facet normal 0.000000 1.000000 -0.000008
outer loop
vertex 385.000000 -9.139481 80.895966
vertex 367.969299 -9.139481 81.932899
vertex 368.427063 -9.139481 82.042801
endloop
endfacet
facet normal 0.000000 1.000000 0.000000
outer loop
vertex 385.000000 -9.139481 80.895966
vertex 368.427063 -9.139481 82.042801
vertex 385.000000 -9.139481 81.054924
endloop
endfacet
facet normal 0.000000 1.000000 0.000004
outer loop
vertex 385.000000 -9.139481 81.054924
vertex 368.427063 -9.139481 82.042801
vertex 368.861969 -9.139481 82.222946
endloop
endfacet
facet normal 0.000000 1.000000 0.000001
outer loop
vertex 385.000000 -9.139481 81.054924
vertex 368.861969 -9.139481 82.222946
vertex 369.263367 -9.139481 82.468918
endloop
endfacet
facet normal 0.000000 1.000000 -0.000006
outer loop
vertex 369.263367 -9.139481 82.468918
vertex 369.621338 -9.139481 82.774643
vertex 385.000000 -9.139481 81.054924
endloop
endfacet
facet normal 0.000000 1.000000 0.000003
outer loop
vertex 385.000000 -9.139481 81.054924
vertex 369.621338 -9.139481 82.774643
vertex 369.927063 -9.139481 83.132614
endloop
endfacet
facet normal 0.000000 1.000000 -0.000003
outer loop
vertex 385.000000 -9.139481 81.054924
vertex 369.927063 -9.139481 83.132614
vertex 370.173035 -9.139481 83.533997
endloop
endfacet
facet normal 0.000000 1.000000 0.000000
outer loop
vertex 385.000000 -9.139481 81.054924
vertex 370.173035 -9.139481 83.533997
vertex 385.000000 -9.139481 85.395966
endloop
endfacet
facet normal 0.000000 1.000000 0.000004
outer loop
vertex 385.000000 -9.139481 85.395966
vertex 370.173035 -9.139481 83.533997
vertex 370.353180 -9.139481 83.968918
endloop
endfacet
facet normal 0.000000 1.000000 -0.000002
outer loop
vertex 385.000000 -9.139481 85.395966
vertex 370.353180 -9.139481 83.968918
vertex 370.463074 -9.139481 84.426666
endloop
endfacet
facet normal 0.000000 1.000000 0.000000
outer loop
vertex 370.463074 -9.139481 84.426666
vertex 370.500000 -9.139481 84.895966
vertex 385.000000 -9.139481 85.395966
endloop
endfacet
facet normal 0.000000 1.000000 0.000002
outer loop
vertex 385.000000 -9.139481 85.395966
vertex 370.500000 -9.139481 84.895966
vertex 370.463074 -9.139481 85.365273
endloop
endfacet
facet normal 0.000000 1.000000 0.000002
outer loop
vertex 385.000000 -9.139481 85.395966
vertex 370.463074 -9.139481 85.365273
vertex 370.353180 -9.139481 85.823021
endloop
endfacet
facet normal 0.000000 1.000000 -0.000005
outer loop
vertex 370.353180 -9.139481 85.823021
vertex 370.173035 -9.139481 86.257935
vertex 385.000000 -9.139481 85.395966
endloop
endfacet
facet normal 0.000000 1.000000 0.000003
outer loop
vertex 385.000000 -9.139481 85.395966
vertex 370.173035 -9.139481 86.257935
vertex 369.927063 -9.139481 86.659325
endloop
endfacet
facet normal 0.000000 1.000000 0.000000
outer loop
vertex 385.000000 -9.139481 85.395966
vertex 369.927063 -9.139481 86.659325
vertex 385.000000 -9.139481 88.895966
endloop
endfacet
facet normal 0.000000 1.000000 -0.000003
outer loop
vertex 385.000000 -9.139481 88.895966
vertex 369.927063 -9.139481 86.659325
vertex 369.621338 -9.139481 87.017288
endloop
endfacet
facet normal 0.000000 1.000000 0.000004
outer loop
vertex 385.000000 -9.139481 88.895966
vertex 369.621338 -9.139481 87.017288
vertex 369.263367 -9.139481 87.323021
endloop
endfacet
facet normal 0.000000 1.000000 0.000000
outer loop
vertex 369.263367 -9.139481 87.323021
vertex 368.861969 -9.139481 87.568985
vertex 385.000000 -9.139481 88.895966
endloop
endfacet
facet normal 0.000000 1.000000 -0.000004
outer loop
vertex 385.000000 -9.139481 88.895966
vertex 368.861969 -9.139481 87.568985
vertex 368.427063 -9.139481 87.749138
endloop
endfacet
facet normal 0.000000 1.000000 0.000008
outer loop
vertex 385.000000 -9.139481 88.895966
vertex 368.427063 -9.139481 87.749138
vertex 367.969299 -9.139481 87.859032
endloop
endfacet
facet normal 0.000000 1.000000 0.000000
outer loop
vertex 367.969299 -9.139481 87.859032
vertex 367.500000 -9.139481 87.895966
vertex 385.000000 -9.139481 88.895966
endloop
endfacet
facet normal 0.000000 1.000000 0.000000
outer loop
vertex 385.000000 -9.139481 88.895966
vertex 367.500000 -9.139481 87.895966
vertex 350.000000 -9.139481 88.895966
endloop
endfacet
facet normal 0.000000 1.000000 0.000003
outer loop
vertex 350.000000 -9.139481 88.895966
vertex 367.500000 -9.139481 87.895966
vertex 367.030701 -9.139481 87.859032
endloop
endfacet
facet normal 0.000000 1.000000 0.000011
outer loop
vertex 350.000000 -9.139481 88.895966
vertex 367.030701 -9.139481 87.859032
vertex 366.572968 -9.139481 87.749138
endloop
endfacet
facet normal 0.000000 1.000000 -0.000009
outer loop
vertex 366.572968 -9.139481 87.749138
vertex 366.138031 -9.139481 87.568985
vertex 350.000000 -9.139481 88.895966
endloop
endfacet
facet normal 0.000000 1.000000 -0.000001
outer loop
vertex 350.000000 -9.139481 88.895966
vertex 366.138031 -9.139481 87.568985
vertex 365.736633 -9.139481 87.323021
endloop
endfacet
facet normal 0.000000 1.000000 0.000000
outer loop
vertex 350.000000 -9.139481 88.895966
vertex 365.736633 -9.139481 87.323021
vertex 365.378693 -9.139481 87.017288
endloop
endfacet
facet normal 0.000000 1.000000 0.000000
outer loop
vertex 365.378693 -9.139481 87.017288
vertex 365.072968 -9.139481 86.659325
vertex 350.000000 -9.139481 88.895966
endloop
endfacet
facet normal 0.000000 1.000000 0.000000
outer loop
vertex 350.000000 -9.139481 88.895966
vertex 365.072968 -9.139481 86.659325
vertex 350.000000 -9.139481 85.395966
endloop
endfacet
facet normal 0.000000 1.000000 -0.000002
outer loop
vertex 350.000000 -9.139481 85.395966
vertex 365.072968 -9.139481 86.659325
vertex 364.826996 -9.139481 86.257935
endloop
endfacet
facet normal 0.000000 1.000000 0.000000
outer loop
vertex 350.000000 -9.139481 85.395966
vertex 364.826996 -9.139481 86.257935
vertex 364.646820 -9.139481 85.823021
endloop
endfacet
facet normal 0.000000 1.000000 0.000000
outer loop
vertex 364.646820 -9.139481 85.823021
vertex 364.536926 -9.139481 85.365273
vertex 350.000000 -9.139481 85.395966
endloop
endfacet
facet normal 0.000000 1.000000 0.000000
outer loop
vertex 389.000000 -9.139481 86.895966
vertex 389.000000 -9.139481 81.054924
vertex 387.000000 -9.139481 85.395966
endloop
endfacet
facet normal 0.000000 1.000000 0.000000
outer loop
vertex 387.000000 -9.139481 85.395966
vertex 389.000000 -9.139481 81.054924
vertex 385.000000 -9.139481 81.054924
endloop
endfacet
facet normal 0.000000 1.000000 0.000000
outer loop
vertex 387.000000 -9.139481 85.395966
vertex 385.000000 -9.139481 81.054924
vertex 385.000000 -9.139481 85.395966
endloop
endfacet
facet normal 0.000000 1.000000 0.000000
outer loop
vertex 346.000000 -9.139481 86.895966
vertex 348.000000 -9.139481 86.895966
vertex 348.000000 -9.139481 85.395966
endloop
endfacet
facet normal 0.000000 1.000000 0.000000
outer loop
vertex 387.000000 -9.139481 85.395966
vertex 387.000000 -9.139481 86.895966
vertex 389.000000 -9.139481 86.895966
endloop
endfacet
facet normal 0.000000 0.000000 1.000000
outer loop
vertex 387.000000 -9.139481 85.395966
vertex 385.000000 -9.139481 85.395966
vertex 387.000000 -16.639481 85.395966
endloop
endfacet
facet normal 0.000000 0.000000 1.000000
outer loop
vertex 387.000000 -16.639481 85.395966
vertex 385.000000 -9.139481 85.395966
vertex 385.000000 -16.639481 85.395966
endloop
endfacet
facet normal -1.000000 0.000000 0.000000
outer loop
vertex 387.000000 -9.139481 85.395966
vertex 387.000000 -16.639481 85.395966
vertex 387.000000 -9.139481 86.895966
endloop
endfacet
facet normal -1.000000 0.000000 0.000000
outer loop
vertex 387.000000 -9.139481 86.895966
vertex 387.000000 -16.639481 85.395966
vertex 387.000000 -19.139481 86.895966
endloop
endfacet
facet normal -1.000000 -0.000064 0.000000
outer loop
vertex 387.000000 -19.139481 86.895966
vertex 387.000000 -16.639481 85.395966
vertex 387.000000 -16.898300 85.361893
endloop
endfacet
facet normal -1.000000 0.000051 0.000000
outer loop
vertex 387.000000 -19.139481 86.895966
vertex 387.000000 -16.898300 85.361893
vertex 387.000000 -17.139481 85.261993
endloop
endfacet
facet normal -1.000000 0.000000 0.000000
outer loop
vertex 387.000000 -17.139481 85.261993
vertex 387.000000 -17.346588 85.103073
vertex 387.000000 -19.139481 86.895966
endloop
endfacet
facet normal -1.000000 -0.000047 0.000000
outer loop
vertex 387.000000 -19.139481 86.895966
vertex 387.000000 -17.346588 85.103073
vertex 387.000000 -17.505508 84.895966
endloop
endfacet
facet normal -1.000000 0.000103 0.000000
outer loop
vertex 387.000000 -19.139481 86.895966
vertex 387.000000 -17.505508 84.895966
vertex 387.000000 -17.605408 84.654785
endloop
endfacet
facet normal -1.000000 0.000000 0.000000
outer loop
vertex 387.000000 -17.605408 84.654785
vertex 387.000000 -17.639481 84.395966
vertex 387.000000 -19.139481 86.895966
endloop
endfacet
facet normal -1.000000 -0.000028 0.000000
outer loop
vertex 387.000000 -19.139481 86.895966
vertex 387.000000 -17.639481 84.395966
vertex 387.000000 -19.139481 81.054924
endloop
endfacet
facet normal -1.000000 0.000035 0.000000
outer loop
vertex 387.000000 -19.139481 81.054924
vertex 387.000000 -17.639481 84.395966
vertex 387.000000 -17.639481 82.054924
endloop
endfacet
facet normal -1.000000 0.000000 0.000000
outer loop
vertex 387.000000 -19.139481 81.054924
vertex 387.000000 -17.639481 82.054924
vertex 387.000000 -17.605408 81.796104
endloop
endfacet
facet normal -1.000000 0.000000 0.000000
outer loop
vertex 387.000000 -17.605408 81.796104
vertex 387.000000 -17.505508 81.554924
vertex 387.000000 -19.139481 81.054924
endloop
endfacet
facet normal -1.000000 0.000000 0.000000
outer loop
vertex 387.000000 -19.139481 81.054924
vertex 387.000000 -17.505508 81.554924
vertex 387.000000 -17.346588 81.347816
endloop
endfacet
facet normal -1.000000 0.000000 0.000000
outer loop
vertex 387.000000 -19.139481 81.054924
vertex 387.000000 -17.346588 81.347816
vertex 387.000000 -17.139481 81.188896
endloop
endfacet
facet normal -1.000000 0.000000 0.000000
outer loop
vertex 387.000000 -17.139481 81.188896
vertex 387.000000 -16.898300 81.088997
vertex 387.000000 -19.139481 81.054924
endloop
endfacet
facet normal -1.000000 0.000000 0.000000
outer loop
vertex 387.000000 -19.139481 81.054924
vertex 387.000000 -16.898300 81.088997
vertex 387.000000 -16.639481 81.054924
endloop
endfacet
facet normal 0.000000 0.000000 1.000000
outer loop
vertex 387.000000 -9.139481 86.895966
vertex 387.000000 -19.139481 86.895966
vertex 389.000000 -9.139481 86.895966
endloop
endfacet
facet normal 0.000000 0.000000 1.000000
outer loop
vertex 389.000000 -9.139481 86.895966
vertex 387.000000 -19.139481 86.895966
vertex 389.000000 -19.139481 86.895966
endloop
endfacet
facet normal 0.000000 -1.000000 0.000000
outer loop
vertex 387.000000 -19.139481 86.895966
vertex 387.000000 -19.139481 81.054924
vertex 389.000000 -19.139481 86.895966
endloop
endfacet
facet normal 0.000000 -1.000000 0.000000
outer loop
vertex 389.000000 -19.139481 86.895966
vertex 387.000000 -19.139481 81.054924
vertex 389.000000 -19.139481 81.054924
endloop
endfacet
facet normal 1.000000 0.000000 0.000000
outer loop
vertex 389.000000 -9.139481 86.895966
vertex 389.000000 -19.139481 86.895966
vertex 389.000000 -9.139481 81.054924
endloop
endfacet
facet normal 1.000000 0.000000 0.000000
outer loop
vertex 389.000000 -9.139481 81.054924
vertex 389.000000 -19.139481 86.895966
vertex 389.000000 -19.139481 81.054924
endloop
endfacet
facet normal 0.000000 -0.130521 -0.991446
outer loop
vertex 385.000000 -16.639481 81.054924
vertex 387.000000 -16.639481 81.054924
vertex 385.000000 -16.898300 81.088997
endloop
endfacet
facet normal 0.000000 -0.130521 -0.991446
outer loop
vertex 385.000000 -16.898300 81.088997
vertex 387.000000 -16.639481 81.054924
vertex 387.000000 -16.898300 81.088997
endloop
endfacet
facet normal 0.000000 -0.382680 -0.923881
outer loop
vertex 385.000000 -16.898300 81.088997
vertex 387.000000 -16.898300 81.088997
vertex 385.000000 -17.139481 81.188896
endloop
endfacet
facet normal 0.000000 -0.382680 -0.923881
outer loop
vertex 385.000000 -17.139481 81.188896
vertex 387.000000 -16.898300 81.088997
vertex 387.000000 -17.139481 81.188896
endloop
endfacet
facet normal 0.000000 -0.608764 -0.793351
outer loop
vertex 385.000000 -17.139481 81.188896
vertex 387.000000 -17.139481 81.188896
vertex 385.000000 -17.346588 81.347816
endloop
endfacet
facet normal 0.000000 -0.608764 -0.793351
outer loop
vertex 385.000000 -17.346588 81.347816
vertex 387.000000 -17.139481 81.188896
vertex 387.000000 -17.346588 81.347816
endloop
endfacet
facet normal 0.000000 -0.793351 -0.608764
outer loop
vertex 385.000000 -17.346588 81.347816
vertex 387.000000 -17.346588 81.347816
vertex 385.000000 -17.505508 81.554924
endloop
endfacet
facet normal 0.000000 -0.793351 -0.608764
outer loop
vertex 385.000000 -17.505508 81.554924
vertex 387.000000 -17.346588 81.347816
vertex 387.000000 -17.505508 81.554924
endloop
endfacet
facet normal 0.000000 -0.923881 -0.382680
outer loop
vertex 385.000000 -17.505508 81.554924
vertex 387.000000 -17.505508 81.554924
vertex 385.000000 -17.605408 81.796104
endloop
endfacet
facet normal 0.000000 -0.923881 -0.382680
outer loop
vertex 385.000000 -17.605408 81.796104
vertex 387.000000 -17.505508 81.554924
vertex 387.000000 -17.605408 81.796104
endloop
endfacet
facet normal 0.000000 -0.991446 -0.130521
outer loop
vertex 385.000000 -17.605408 81.796104
vertex 387.000000 -17.605408 81.796104
vertex 385.000000 -17.639481 82.054924
endloop
endfacet
facet normal 0.000000 -0.991446 -0.130521
outer loop
vertex 385.000000 -17.639481 82.054924
vertex 387.000000 -17.605408 81.796104
vertex 387.000000 -17.639481 82.054924
endloop
endfacet
facet normal 0.000000 0.000000 -1.000000
outer loop
vertex 385.000000 -16.639481 81.054924
vertex 385.000000 -9.139481 81.054924
vertex 387.000000 -16.639481 81.054924
endloop
endfacet
facet normal 0.000000 0.000000 -1.000000
outer loop
vertex 387.000000 -16.639481 81.054924
vertex 385.000000 -9.139481 81.054924
vertex 389.000000 -9.139481 81.054924
endloop
endfacet
facet normal 0.000000 0.000000 -1.000000
outer loop
vertex 387.000000 -16.639481 81.054924
vertex 389.000000 -9.139481 81.054924
vertex 389.000000 -19.139481 81.054924
endloop
endfacet
facet normal 0.000000 0.000000 -1.000000
outer loop
vertex 389.000000 -19.139481 81.054924
vertex 387.000000 -19.139481 81.054924
vertex 387.000000 -16.639481 81.054924
endloop
endfacet
facet normal 0.000000 -0.991446 0.130521
outer loop
vertex 385.000000 -17.639481 84.395966
vertex 387.000000 -17.639481 84.395966
vertex 385.000000 -17.605408 84.654785
endloop
endfacet
facet normal 0.000000 -0.991446 0.130521
outer loop
vertex 385.000000 -17.605408 84.654785
vertex 387.000000 -17.639481 84.395966
vertex 387.000000 -17.605408 84.654785
endloop
endfacet
facet normal 0.000000 -0.923881 0.382680
outer loop
vertex 385.000000 -17.605408 84.654785
vertex 387.000000 -17.605408 84.654785
vertex 385.000000 -17.505508 84.895966
endloop
endfacet
facet normal 0.000000 -0.923881 0.382680
outer loop
vertex 385.000000 -17.505508 84.895966
vertex 387.000000 -17.605408 84.654785
vertex 387.000000 -17.505508 84.895966
endloop
endfacet
facet normal 0.000000 -0.793351 0.608764
outer loop
vertex 385.000000 -17.505508 84.895966
vertex 387.000000 -17.505508 84.895966
vertex 385.000000 -17.346588 85.103073
endloop
endfacet
facet normal 0.000000 -0.793351 0.608764
outer loop
vertex 385.000000 -17.346588 85.103073
vertex 387.000000 -17.505508 84.895966
vertex 387.000000 -17.346588 85.103073
endloop
endfacet
facet normal 0.000000 -0.608764 0.793351
outer loop
vertex 385.000000 -17.346588 85.103073
vertex 387.000000 -17.346588 85.103073
vertex 385.000000 -17.139481 85.261993
endloop
endfacet
facet normal 0.000000 -0.608764 0.793351
outer loop
vertex 385.000000 -17.139481 85.261993
vertex 387.000000 -17.346588 85.103073
vertex 387.000000 -17.139481 85.261993
endloop
endfacet
facet normal 0.000000 -0.382680 0.923881
outer loop
vertex 385.000000 -17.139481 85.261993
vertex 387.000000 -17.139481 85.261993
vertex 385.000000 -16.898300 85.361893
endloop
endfacet
facet normal 0.000000 -0.382680 0.923881
outer loop
vertex 385.000000 -16.898300 85.361893
vertex 387.000000 -17.139481 85.261993
vertex 387.000000 -16.898300 85.361893
endloop
endfacet
facet normal 0.000000 -0.130521 0.991446
outer loop
vertex 385.000000 -16.898300 85.361893
vertex 387.000000 -16.898300 85.361893
vertex 385.000000 -16.639481 85.395966
endloop
endfacet
facet normal 0.000000 -0.130521 0.991446
outer loop
vertex 385.000000 -16.639481 85.395966
vertex 387.000000 -16.898300 85.361893
vertex 387.000000 -16.639481 85.395966
endloop
endfacet
facet normal 0.000000 -1.000000 0.000000
outer loop
vertex 387.000000 -17.639481 82.054924
vertex 387.000000 -17.639481 84.395966
vertex 385.000000 -17.639481 82.054924
endloop
endfacet
facet normal 0.000000 -1.000000 0.000000
outer loop
vertex 385.000000 -17.639481 82.054924
vertex 387.000000 -17.639481 84.395966
vertex 385.000000 -17.639481 84.395966
endloop
endfacet
endsolid ArduinoOnPicaTinny v1.004
